<mxfile host="app.diagrams.net" agent="Mozilla/5.0 (Windows NT 10.0; Win64; x64) AppleWebKit/537.36 (KHTML, like Gecko) Chrome/131.0.0.0 Safari/537.36 Edg/131.0.0.0" version="24.8.6" pages="5">
  <diagram name="G" id="H62_dTHRxHn6-XKtVNI4">
    <mxGraphModel dx="1426" dy="781" grid="1" gridSize="10" guides="1" tooltips="1" connect="1" arrows="1" fold="1" page="1" pageScale="1" pageWidth="827" pageHeight="1169" math="0" shadow="0">
      <root>
        <mxCell id="0" />
        <mxCell id="1" parent="0" />
        <mxCell id="y24MIxbhBwyy81BUQA5c-233" value="" style="endArrow=none;html=1;rounded=0;" parent="1" edge="1">
          <mxGeometry width="50" height="50" relative="1" as="geometry">
            <mxPoint x="255.5" y="99" as="sourcePoint" />
            <mxPoint x="585.5" y="99" as="targetPoint" />
          </mxGeometry>
        </mxCell>
        <mxCell id="y24MIxbhBwyy81BUQA5c-234" value="" style="endArrow=none;html=1;rounded=0;" parent="1" edge="1">
          <mxGeometry width="50" height="50" relative="1" as="geometry">
            <mxPoint x="255" y="112" as="sourcePoint" />
            <mxPoint x="585" y="112" as="targetPoint" />
          </mxGeometry>
        </mxCell>
        <mxCell id="y24MIxbhBwyy81BUQA5c-235" value="" style="endArrow=none;html=1;rounded=0;" parent="1" edge="1">
          <mxGeometry width="50" height="50" relative="1" as="geometry">
            <mxPoint x="321" y="112" as="sourcePoint" />
            <mxPoint x="321" y="99" as="targetPoint" />
          </mxGeometry>
        </mxCell>
        <mxCell id="y24MIxbhBwyy81BUQA5c-236" value="" style="endArrow=none;html=1;rounded=0;" parent="1" edge="1">
          <mxGeometry width="50" height="50" relative="1" as="geometry">
            <mxPoint x="411" y="112" as="sourcePoint" />
            <mxPoint x="411" y="99" as="targetPoint" />
          </mxGeometry>
        </mxCell>
        <mxCell id="y24MIxbhBwyy81BUQA5c-237" value="" style="endArrow=none;html=1;rounded=0;" parent="1" edge="1">
          <mxGeometry width="50" height="50" relative="1" as="geometry">
            <mxPoint x="500" y="112" as="sourcePoint" />
            <mxPoint x="500" y="99" as="targetPoint" />
          </mxGeometry>
        </mxCell>
        <mxCell id="y24MIxbhBwyy81BUQA5c-238" value="" style="ellipse;whiteSpace=wrap;html=1;aspect=fixed;fillColor=#80ff66;strokeColor=default;" parent="1" vertex="1">
          <mxGeometry x="301" y="119" width="10" height="10" as="geometry" />
        </mxCell>
        <mxCell id="y24MIxbhBwyy81BUQA5c-239" value="" style="endArrow=none;html=1;rounded=0;exitX=1;exitY=0.5;exitDx=0;exitDy=0;" parent="1" source="y24MIxbhBwyy81BUQA5c-238" edge="1">
          <mxGeometry width="50" height="50" relative="1" as="geometry">
            <mxPoint x="471" y="139" as="sourcePoint" />
            <mxPoint x="321" y="124" as="targetPoint" />
          </mxGeometry>
        </mxCell>
        <mxCell id="y24MIxbhBwyy81BUQA5c-240" value="" style="endArrow=none;html=1;rounded=0;" parent="1" edge="1">
          <mxGeometry width="50" height="50" relative="1" as="geometry">
            <mxPoint x="321" y="129" as="sourcePoint" />
            <mxPoint x="321" y="119" as="targetPoint" />
          </mxGeometry>
        </mxCell>
        <mxCell id="y24MIxbhBwyy81BUQA5c-241" value="YT" style="text;html=1;align=center;verticalAlign=middle;resizable=0;points=[];autosize=1;strokeColor=none;fillColor=none;fontSize=8;" parent="1" vertex="1">
          <mxGeometry x="276" y="96" width="30" height="20" as="geometry" />
        </mxCell>
        <mxCell id="y24MIxbhBwyy81BUQA5c-242" value="B102T" style="text;html=1;align=center;verticalAlign=middle;resizable=0;points=[];autosize=1;strokeColor=none;fillColor=none;fontSize=8;" parent="1" vertex="1">
          <mxGeometry x="340" y="96" width="50" height="20" as="geometry" />
        </mxCell>
        <mxCell id="y24MIxbhBwyy81BUQA5c-243" value="" style="shape=mxgraph.signs.transportation.train_3;html=1;pointerEvents=1;fillColor=#000000;strokeColor=none;verticalLabelPosition=bottom;verticalAlign=top;align=center;fontSize=11;" parent="1" vertex="1">
          <mxGeometry x="546" y="77" width="39.5" height="15" as="geometry" />
        </mxCell>
        <mxCell id="y24MIxbhBwyy81BUQA5c-244" value="" style="ellipse;whiteSpace=wrap;html=1;aspect=fixed;fillColor=#80ff66;" parent="1" vertex="1">
          <mxGeometry x="391" y="120" width="10" height="10" as="geometry" />
        </mxCell>
        <mxCell id="y24MIxbhBwyy81BUQA5c-245" value="" style="endArrow=none;html=1;rounded=0;exitX=1;exitY=0.5;exitDx=0;exitDy=0;" parent="1" source="y24MIxbhBwyy81BUQA5c-244" edge="1">
          <mxGeometry width="50" height="50" relative="1" as="geometry">
            <mxPoint x="561" y="140" as="sourcePoint" />
            <mxPoint x="411" y="125" as="targetPoint" />
          </mxGeometry>
        </mxCell>
        <mxCell id="y24MIxbhBwyy81BUQA5c-246" value="" style="endArrow=none;html=1;rounded=0;" parent="1" edge="1">
          <mxGeometry width="50" height="50" relative="1" as="geometry">
            <mxPoint x="411" y="130" as="sourcePoint" />
            <mxPoint x="411" y="120" as="targetPoint" />
          </mxGeometry>
        </mxCell>
        <mxCell id="y24MIxbhBwyy81BUQA5c-247" value="&lt;font style=&quot;font-size: 12px;&quot;&gt;2A&lt;/font&gt;" style="text;html=1;align=right;verticalAlign=bottom;resizable=0;points=[];autosize=1;strokeColor=none;fillColor=none;labelPosition=left;verticalLabelPosition=top;fontSize=12;" parent="1" vertex="1">
          <mxGeometry x="329" y="149" width="40" height="30" as="geometry" />
        </mxCell>
        <mxCell id="y24MIxbhBwyy81BUQA5c-248" value="&lt;span style=&quot;font-size: 12px;&quot;&gt;상1&lt;/span&gt;" style="text;html=1;align=right;verticalAlign=bottom;resizable=0;points=[];autosize=1;strokeColor=none;fillColor=none;labelPosition=left;verticalLabelPosition=top;fontSize=12;" parent="1" vertex="1">
          <mxGeometry x="420" y="149" width="40" height="30" as="geometry" />
        </mxCell>
        <mxCell id="y24MIxbhBwyy81BUQA5c-249" value="" style="ellipse;whiteSpace=wrap;html=1;aspect=fixed;fillColor=none;" parent="1" vertex="1">
          <mxGeometry x="380" y="120" width="10" height="10" as="geometry" />
        </mxCell>
        <mxCell id="y24MIxbhBwyy81BUQA5c-250" value="TS03" style="rounded=0;whiteSpace=wrap;html=1;" parent="1" vertex="1">
          <mxGeometry x="581.5" y="35" width="70" height="30" as="geometry" />
        </mxCell>
        <mxCell id="y24MIxbhBwyy81BUQA5c-251" value="TS02" style="rounded=0;whiteSpace=wrap;html=1;" parent="1" vertex="1">
          <mxGeometry x="181" y="35" width="70" height="30" as="geometry" />
        </mxCell>
        <mxCell id="y24MIxbhBwyy81BUQA5c-252" value="" style="endArrow=blockThin;html=1;rounded=0;endFill=1;strokeColor=#ff0000;" parent="1" edge="1">
          <mxGeometry width="50" height="50" relative="1" as="geometry">
            <mxPoint x="560" y="50" as="sourcePoint" />
            <mxPoint x="520" y="49.75999999999999" as="targetPoint" />
          </mxGeometry>
        </mxCell>
        <mxCell id="y24MIxbhBwyy81BUQA5c-253" value="UP" style="edgeLabel;html=1;align=center;verticalAlign=middle;resizable=0;points=[];" parent="y24MIxbhBwyy81BUQA5c-252" vertex="1" connectable="0">
          <mxGeometry x="-0.117" y="1" relative="1" as="geometry">
            <mxPoint y="-1" as="offset" />
          </mxGeometry>
        </mxCell>
        <mxCell id="y24MIxbhBwyy81BUQA5c-254" value="" style="ellipse;whiteSpace=wrap;html=1;aspect=fixed;fillColor=none;strokeColor=default;" parent="1" vertex="1">
          <mxGeometry x="420" y="81" width="10" height="10" as="geometry" />
        </mxCell>
        <mxCell id="y24MIxbhBwyy81BUQA5c-255" value="" style="endArrow=none;html=1;rounded=0;exitX=0;exitY=0.5;exitDx=0;exitDy=0;" parent="1" source="y24MIxbhBwyy81BUQA5c-254" edge="1">
          <mxGeometry width="50" height="50" relative="1" as="geometry">
            <mxPoint x="561" y="101" as="sourcePoint" />
            <mxPoint x="411" y="86" as="targetPoint" />
          </mxGeometry>
        </mxCell>
        <mxCell id="y24MIxbhBwyy81BUQA5c-256" value="" style="endArrow=none;html=1;rounded=0;" parent="1" edge="1">
          <mxGeometry width="50" height="50" relative="1" as="geometry">
            <mxPoint x="411" y="91" as="sourcePoint" />
            <mxPoint x="411" y="81" as="targetPoint" />
          </mxGeometry>
        </mxCell>
        <mxCell id="y24MIxbhBwyy81BUQA5c-257" value="&lt;span style=&quot;font-size: 12px;&quot;&gt;하3&lt;/span&gt;" style="text;html=1;align=left;verticalAlign=middle;resizable=0;points=[];autosize=1;strokeColor=none;fillColor=none;labelPosition=right;verticalLabelPosition=middle;fontSize=12;" parent="1" vertex="1">
          <mxGeometry x="359" y="59" width="40" height="30" as="geometry" />
        </mxCell>
        <mxCell id="y24MIxbhBwyy81BUQA5c-258" value="" style="endArrow=classic;html=1;rounded=0;strokeColor=#e90707;" parent="1" edge="1">
          <mxGeometry width="50" height="50" relative="1" as="geometry">
            <mxPoint x="441" y="145" as="sourcePoint" />
            <mxPoint x="421" y="135" as="targetPoint" />
          </mxGeometry>
        </mxCell>
        <mxCell id="y24MIxbhBwyy81BUQA5c-259" value="&lt;font style=&quot;font-size: 10px;&quot;&gt;시험장치&lt;/font&gt;" style="text;html=1;align=center;verticalAlign=middle;whiteSpace=wrap;rounded=0;fontSize=10;" parent="1" vertex="1">
          <mxGeometry x="440" y="136" width="50" height="15" as="geometry" />
        </mxCell>
        <mxCell id="y24MIxbhBwyy81BUQA5c-260" value="" style="ellipse;whiteSpace=wrap;html=1;aspect=fixed;fillColor=#80ff66;strokeColor=default;" parent="1" vertex="1">
          <mxGeometry x="159" y="120" width="10" height="10" as="geometry" />
        </mxCell>
        <mxCell id="y24MIxbhBwyy81BUQA5c-261" value="" style="endArrow=none;html=1;rounded=0;exitX=1;exitY=0.5;exitDx=0;exitDy=0;" parent="1" source="y24MIxbhBwyy81BUQA5c-260" edge="1">
          <mxGeometry width="50" height="50" relative="1" as="geometry">
            <mxPoint x="329" y="140" as="sourcePoint" />
            <mxPoint x="179" y="125" as="targetPoint" />
          </mxGeometry>
        </mxCell>
        <mxCell id="y24MIxbhBwyy81BUQA5c-262" value="" style="endArrow=none;html=1;rounded=0;" parent="1" edge="1">
          <mxGeometry width="50" height="50" relative="1" as="geometry">
            <mxPoint x="179" y="130" as="sourcePoint" />
            <mxPoint x="179" y="120" as="targetPoint" />
          </mxGeometry>
        </mxCell>
        <mxCell id="y24MIxbhBwyy81BUQA5c-263" value="&lt;font style=&quot;font-size: 12px;&quot;&gt;3B&lt;/font&gt;" style="text;html=1;align=right;verticalAlign=bottom;resizable=0;points=[];autosize=1;strokeColor=none;fillColor=none;labelPosition=left;verticalLabelPosition=top;fontSize=12;" parent="1" vertex="1">
          <mxGeometry x="188" y="148" width="40" height="30" as="geometry" />
        </mxCell>
        <mxCell id="y24MIxbhBwyy81BUQA5c-264" value="" style="ellipse;whiteSpace=wrap;html=1;aspect=fixed;fillColor=none;strokeColor=default;" parent="1" vertex="1">
          <mxGeometry x="148" y="120" width="10" height="10" as="geometry" />
        </mxCell>
        <mxCell id="y24MIxbhBwyy81BUQA5c-265" value="" style="endArrow=none;html=1;rounded=0;" parent="1" edge="1">
          <mxGeometry width="50" height="50" relative="1" as="geometry">
            <mxPoint x="99" y="99" as="sourcePoint" />
            <mxPoint x="179" y="99" as="targetPoint" />
          </mxGeometry>
        </mxCell>
        <mxCell id="y24MIxbhBwyy81BUQA5c-266" value="" style="endArrow=none;html=1;rounded=0;" parent="1" edge="1">
          <mxGeometry width="50" height="50" relative="1" as="geometry">
            <mxPoint x="99" y="112" as="sourcePoint" />
            <mxPoint x="179" y="112" as="targetPoint" />
          </mxGeometry>
        </mxCell>
        <mxCell id="y24MIxbhBwyy81BUQA5c-267" value="" style="endArrow=classic;html=1;rounded=0;strokeColor=#ec0909;" parent="1" edge="1">
          <mxGeometry width="50" height="50" relative="1" as="geometry">
            <mxPoint x="10" y="124.5" as="sourcePoint" />
            <mxPoint x="100" y="124.5" as="targetPoint" />
          </mxGeometry>
        </mxCell>
        <mxCell id="y24MIxbhBwyy81BUQA5c-268" value="제어신호" style="edgeLabel;html=1;align=center;verticalAlign=middle;resizable=0;points=[];" parent="y24MIxbhBwyy81BUQA5c-267" vertex="1" connectable="0">
          <mxGeometry x="0.3556" y="-3" relative="1" as="geometry">
            <mxPoint x="-15" y="-3" as="offset" />
          </mxGeometry>
        </mxCell>
        <mxCell id="y24MIxbhBwyy81BUQA5c-269" value="" style="endArrow=none;html=1;rounded=0;" parent="1" edge="1">
          <mxGeometry width="50" height="50" relative="1" as="geometry">
            <mxPoint x="256.5" y="242" as="sourcePoint" />
            <mxPoint x="586.5" y="242" as="targetPoint" />
          </mxGeometry>
        </mxCell>
        <mxCell id="y24MIxbhBwyy81BUQA5c-270" value="" style="endArrow=none;html=1;rounded=0;" parent="1" edge="1">
          <mxGeometry width="50" height="50" relative="1" as="geometry">
            <mxPoint x="256" y="255" as="sourcePoint" />
            <mxPoint x="586" y="255" as="targetPoint" />
          </mxGeometry>
        </mxCell>
        <mxCell id="y24MIxbhBwyy81BUQA5c-271" value="" style="endArrow=none;html=1;rounded=0;" parent="1" edge="1">
          <mxGeometry width="50" height="50" relative="1" as="geometry">
            <mxPoint x="322" y="255" as="sourcePoint" />
            <mxPoint x="322" y="242" as="targetPoint" />
          </mxGeometry>
        </mxCell>
        <mxCell id="y24MIxbhBwyy81BUQA5c-272" value="" style="endArrow=none;html=1;rounded=0;" parent="1" edge="1">
          <mxGeometry width="50" height="50" relative="1" as="geometry">
            <mxPoint x="412" y="255" as="sourcePoint" />
            <mxPoint x="412" y="242" as="targetPoint" />
          </mxGeometry>
        </mxCell>
        <mxCell id="y24MIxbhBwyy81BUQA5c-273" value="" style="endArrow=none;html=1;rounded=0;" parent="1" edge="1">
          <mxGeometry width="50" height="50" relative="1" as="geometry">
            <mxPoint x="501" y="255" as="sourcePoint" />
            <mxPoint x="501" y="242" as="targetPoint" />
          </mxGeometry>
        </mxCell>
        <mxCell id="y24MIxbhBwyy81BUQA5c-274" value="" style="ellipse;whiteSpace=wrap;html=1;aspect=fixed;fillColor=#80ff66;strokeColor=default;" parent="1" vertex="1">
          <mxGeometry x="302" y="262" width="10" height="10" as="geometry" />
        </mxCell>
        <mxCell id="y24MIxbhBwyy81BUQA5c-275" value="" style="endArrow=none;html=1;rounded=0;exitX=1;exitY=0.5;exitDx=0;exitDy=0;" parent="1" source="y24MIxbhBwyy81BUQA5c-274" edge="1">
          <mxGeometry width="50" height="50" relative="1" as="geometry">
            <mxPoint x="472" y="282" as="sourcePoint" />
            <mxPoint x="322" y="267" as="targetPoint" />
          </mxGeometry>
        </mxCell>
        <mxCell id="y24MIxbhBwyy81BUQA5c-276" value="" style="endArrow=none;html=1;rounded=0;" parent="1" edge="1">
          <mxGeometry width="50" height="50" relative="1" as="geometry">
            <mxPoint x="322" y="272" as="sourcePoint" />
            <mxPoint x="322" y="262" as="targetPoint" />
          </mxGeometry>
        </mxCell>
        <mxCell id="y24MIxbhBwyy81BUQA5c-277" value="YT" style="text;html=1;align=center;verticalAlign=middle;resizable=0;points=[];autosize=1;strokeColor=none;fillColor=none;fontSize=8;" parent="1" vertex="1">
          <mxGeometry x="277" y="239" width="30" height="20" as="geometry" />
        </mxCell>
        <mxCell id="y24MIxbhBwyy81BUQA5c-278" value="B102T" style="text;html=1;align=center;verticalAlign=middle;resizable=0;points=[];autosize=1;strokeColor=none;fillColor=none;fontSize=8;" parent="1" vertex="1">
          <mxGeometry x="341" y="239" width="50" height="20" as="geometry" />
        </mxCell>
        <mxCell id="y24MIxbhBwyy81BUQA5c-279" value="" style="shape=mxgraph.signs.transportation.train_3;html=1;pointerEvents=1;fillColor=#000000;strokeColor=none;verticalLabelPosition=bottom;verticalAlign=top;align=center;fontSize=11;" parent="1" vertex="1">
          <mxGeometry x="547" y="220" width="39.5" height="15" as="geometry" />
        </mxCell>
        <mxCell id="y24MIxbhBwyy81BUQA5c-280" value="" style="ellipse;whiteSpace=wrap;html=1;aspect=fixed;fillColor=#80ff66;" parent="1" vertex="1">
          <mxGeometry x="392" y="263" width="10" height="10" as="geometry" />
        </mxCell>
        <mxCell id="y24MIxbhBwyy81BUQA5c-281" value="" style="endArrow=none;html=1;rounded=0;exitX=1;exitY=0.5;exitDx=0;exitDy=0;" parent="1" source="y24MIxbhBwyy81BUQA5c-280" edge="1">
          <mxGeometry width="50" height="50" relative="1" as="geometry">
            <mxPoint x="562" y="283" as="sourcePoint" />
            <mxPoint x="412" y="268" as="targetPoint" />
          </mxGeometry>
        </mxCell>
        <mxCell id="y24MIxbhBwyy81BUQA5c-282" value="" style="endArrow=none;html=1;rounded=0;" parent="1" edge="1">
          <mxGeometry width="50" height="50" relative="1" as="geometry">
            <mxPoint x="412" y="273" as="sourcePoint" />
            <mxPoint x="412" y="263" as="targetPoint" />
          </mxGeometry>
        </mxCell>
        <mxCell id="y24MIxbhBwyy81BUQA5c-283" value="&lt;font style=&quot;font-size: 12px;&quot;&gt;2A&lt;/font&gt;" style="text;html=1;align=right;verticalAlign=bottom;resizable=0;points=[];autosize=1;strokeColor=none;fillColor=none;labelPosition=left;verticalLabelPosition=top;fontSize=12;" parent="1" vertex="1">
          <mxGeometry x="330" y="289" width="40" height="30" as="geometry" />
        </mxCell>
        <mxCell id="y24MIxbhBwyy81BUQA5c-284" value="&lt;span style=&quot;font-size: 12px;&quot;&gt;상1&lt;/span&gt;" style="text;html=1;align=right;verticalAlign=bottom;resizable=0;points=[];autosize=1;strokeColor=none;fillColor=none;labelPosition=left;verticalLabelPosition=top;fontSize=12;" parent="1" vertex="1">
          <mxGeometry x="422" y="291" width="40" height="30" as="geometry" />
        </mxCell>
        <mxCell id="y24MIxbhBwyy81BUQA5c-285" value="" style="ellipse;whiteSpace=wrap;html=1;aspect=fixed;fillColor=none;" parent="1" vertex="1">
          <mxGeometry x="381" y="263" width="10" height="10" as="geometry" />
        </mxCell>
        <mxCell id="y24MIxbhBwyy81BUQA5c-286" value="TS03" style="rounded=0;whiteSpace=wrap;html=1;" parent="1" vertex="1">
          <mxGeometry x="582.5" y="178" width="70" height="30" as="geometry" />
        </mxCell>
        <mxCell id="y24MIxbhBwyy81BUQA5c-287" value="TS02" style="rounded=0;whiteSpace=wrap;html=1;" parent="1" vertex="1">
          <mxGeometry x="182" y="178" width="70" height="30" as="geometry" />
        </mxCell>
        <mxCell id="y24MIxbhBwyy81BUQA5c-288" value="" style="endArrow=blockThin;html=1;rounded=0;endFill=1;strokeColor=#ff0000;" parent="1" edge="1">
          <mxGeometry width="50" height="50" relative="1" as="geometry">
            <mxPoint x="561" y="193" as="sourcePoint" />
            <mxPoint x="521" y="193" as="targetPoint" />
          </mxGeometry>
        </mxCell>
        <mxCell id="y24MIxbhBwyy81BUQA5c-289" value="UP" style="edgeLabel;html=1;align=center;verticalAlign=middle;resizable=0;points=[];" parent="y24MIxbhBwyy81BUQA5c-288" vertex="1" connectable="0">
          <mxGeometry x="-0.117" y="1" relative="1" as="geometry">
            <mxPoint y="-1" as="offset" />
          </mxGeometry>
        </mxCell>
        <mxCell id="y24MIxbhBwyy81BUQA5c-290" value="" style="ellipse;whiteSpace=wrap;html=1;aspect=fixed;fillColor=none;strokeColor=default;" parent="1" vertex="1">
          <mxGeometry x="421" y="224" width="10" height="10" as="geometry" />
        </mxCell>
        <mxCell id="y24MIxbhBwyy81BUQA5c-291" value="" style="endArrow=none;html=1;rounded=0;exitX=0;exitY=0.5;exitDx=0;exitDy=0;" parent="1" source="y24MIxbhBwyy81BUQA5c-290" edge="1">
          <mxGeometry width="50" height="50" relative="1" as="geometry">
            <mxPoint x="562" y="244" as="sourcePoint" />
            <mxPoint x="412" y="229" as="targetPoint" />
          </mxGeometry>
        </mxCell>
        <mxCell id="y24MIxbhBwyy81BUQA5c-292" value="" style="endArrow=none;html=1;rounded=0;" parent="1" edge="1">
          <mxGeometry width="50" height="50" relative="1" as="geometry">
            <mxPoint x="412" y="234" as="sourcePoint" />
            <mxPoint x="412" y="224" as="targetPoint" />
          </mxGeometry>
        </mxCell>
        <mxCell id="y24MIxbhBwyy81BUQA5c-293" value="&lt;span style=&quot;font-size: 12px;&quot;&gt;하3&lt;/span&gt;" style="text;html=1;align=left;verticalAlign=middle;resizable=0;points=[];autosize=1;strokeColor=none;fillColor=none;labelPosition=right;verticalLabelPosition=middle;fontSize=12;" parent="1" vertex="1">
          <mxGeometry x="360" y="202" width="40" height="30" as="geometry" />
        </mxCell>
        <mxCell id="y24MIxbhBwyy81BUQA5c-294" value="" style="endArrow=classic;html=1;rounded=0;strokeColor=#e90707;" parent="1" edge="1">
          <mxGeometry width="50" height="50" relative="1" as="geometry">
            <mxPoint x="442" y="288" as="sourcePoint" />
            <mxPoint x="422" y="278" as="targetPoint" />
          </mxGeometry>
        </mxCell>
        <mxCell id="y24MIxbhBwyy81BUQA5c-295" value="&lt;font style=&quot;font-size: 10px;&quot;&gt;시험장치&lt;/font&gt;" style="text;html=1;align=center;verticalAlign=middle;whiteSpace=wrap;rounded=0;fontSize=10;" parent="1" vertex="1">
          <mxGeometry x="439" y="279" width="53" height="15" as="geometry" />
        </mxCell>
        <mxCell id="y24MIxbhBwyy81BUQA5c-296" value="" style="ellipse;whiteSpace=wrap;html=1;aspect=fixed;fillColor=#80ff66;strokeColor=default;" parent="1" vertex="1">
          <mxGeometry x="160" y="263" width="10" height="10" as="geometry" />
        </mxCell>
        <mxCell id="y24MIxbhBwyy81BUQA5c-297" value="" style="endArrow=none;html=1;rounded=0;exitX=1;exitY=0.5;exitDx=0;exitDy=0;" parent="1" source="y24MIxbhBwyy81BUQA5c-296" edge="1">
          <mxGeometry width="50" height="50" relative="1" as="geometry">
            <mxPoint x="330" y="283" as="sourcePoint" />
            <mxPoint x="180" y="268" as="targetPoint" />
          </mxGeometry>
        </mxCell>
        <mxCell id="y24MIxbhBwyy81BUQA5c-298" value="" style="endArrow=none;html=1;rounded=0;" parent="1" edge="1">
          <mxGeometry width="50" height="50" relative="1" as="geometry">
            <mxPoint x="180" y="273" as="sourcePoint" />
            <mxPoint x="180" y="263" as="targetPoint" />
          </mxGeometry>
        </mxCell>
        <mxCell id="y24MIxbhBwyy81BUQA5c-299" value="&lt;font style=&quot;font-size: 12px;&quot;&gt;3B&lt;/font&gt;" style="text;html=1;align=right;verticalAlign=bottom;resizable=0;points=[];autosize=1;strokeColor=none;fillColor=none;labelPosition=left;verticalLabelPosition=top;fontSize=12;" parent="1" vertex="1">
          <mxGeometry x="189" y="290" width="40" height="30" as="geometry" />
        </mxCell>
        <mxCell id="y24MIxbhBwyy81BUQA5c-300" value="" style="ellipse;whiteSpace=wrap;html=1;aspect=fixed;fillColor=#FFD966;strokeColor=default;" parent="1" vertex="1">
          <mxGeometry x="149" y="263" width="10" height="10" as="geometry" />
        </mxCell>
        <mxCell id="y24MIxbhBwyy81BUQA5c-301" value="" style="endArrow=none;html=1;rounded=0;" parent="1" edge="1">
          <mxGeometry width="50" height="50" relative="1" as="geometry">
            <mxPoint x="100" y="242" as="sourcePoint" />
            <mxPoint x="180" y="242" as="targetPoint" />
          </mxGeometry>
        </mxCell>
        <mxCell id="y24MIxbhBwyy81BUQA5c-302" value="" style="endArrow=none;html=1;rounded=0;" parent="1" edge="1">
          <mxGeometry width="50" height="50" relative="1" as="geometry">
            <mxPoint x="100" y="255" as="sourcePoint" />
            <mxPoint x="180" y="255" as="targetPoint" />
          </mxGeometry>
        </mxCell>
        <mxCell id="y24MIxbhBwyy81BUQA5c-303" value="" style="endArrow=classic;html=1;rounded=0;strokeColor=#ec0909;" parent="1" edge="1">
          <mxGeometry width="50" height="50" relative="1" as="geometry">
            <mxPoint x="11" y="267.5" as="sourcePoint" />
            <mxPoint x="101" y="267.5" as="targetPoint" />
          </mxGeometry>
        </mxCell>
        <mxCell id="y24MIxbhBwyy81BUQA5c-304" value="제어신호" style="edgeLabel;html=1;align=center;verticalAlign=middle;resizable=0;points=[];" parent="y24MIxbhBwyy81BUQA5c-303" vertex="1" connectable="0">
          <mxGeometry x="0.3556" y="-3" relative="1" as="geometry">
            <mxPoint x="-15" y="-3" as="offset" />
          </mxGeometry>
        </mxCell>
        <mxCell id="y24MIxbhBwyy81BUQA5c-305" value="" style="endArrow=none;html=1;rounded=0;" parent="1" edge="1">
          <mxGeometry width="50" height="50" relative="1" as="geometry">
            <mxPoint x="257.5" y="391" as="sourcePoint" />
            <mxPoint x="587.5" y="391" as="targetPoint" />
          </mxGeometry>
        </mxCell>
        <mxCell id="y24MIxbhBwyy81BUQA5c-306" value="" style="endArrow=none;html=1;rounded=0;" parent="1" edge="1">
          <mxGeometry width="50" height="50" relative="1" as="geometry">
            <mxPoint x="257" y="404" as="sourcePoint" />
            <mxPoint x="587" y="404" as="targetPoint" />
          </mxGeometry>
        </mxCell>
        <mxCell id="y24MIxbhBwyy81BUQA5c-307" value="" style="endArrow=none;html=1;rounded=0;" parent="1" edge="1">
          <mxGeometry width="50" height="50" relative="1" as="geometry">
            <mxPoint x="323" y="404" as="sourcePoint" />
            <mxPoint x="323" y="391" as="targetPoint" />
          </mxGeometry>
        </mxCell>
        <mxCell id="y24MIxbhBwyy81BUQA5c-308" value="" style="endArrow=none;html=1;rounded=0;" parent="1" edge="1">
          <mxGeometry width="50" height="50" relative="1" as="geometry">
            <mxPoint x="413" y="404" as="sourcePoint" />
            <mxPoint x="413" y="391" as="targetPoint" />
          </mxGeometry>
        </mxCell>
        <mxCell id="y24MIxbhBwyy81BUQA5c-309" value="" style="endArrow=none;html=1;rounded=0;" parent="1" edge="1">
          <mxGeometry width="50" height="50" relative="1" as="geometry">
            <mxPoint x="502" y="404" as="sourcePoint" />
            <mxPoint x="502" y="391" as="targetPoint" />
          </mxGeometry>
        </mxCell>
        <mxCell id="y24MIxbhBwyy81BUQA5c-310" value="" style="ellipse;whiteSpace=wrap;html=1;aspect=fixed;fillColor=#80ff66;strokeColor=default;" parent="1" vertex="1">
          <mxGeometry x="303" y="411" width="10" height="10" as="geometry" />
        </mxCell>
        <mxCell id="y24MIxbhBwyy81BUQA5c-311" value="" style="endArrow=none;html=1;rounded=0;exitX=1;exitY=0.5;exitDx=0;exitDy=0;" parent="1" source="y24MIxbhBwyy81BUQA5c-310" edge="1">
          <mxGeometry width="50" height="50" relative="1" as="geometry">
            <mxPoint x="473" y="431" as="sourcePoint" />
            <mxPoint x="323" y="416" as="targetPoint" />
          </mxGeometry>
        </mxCell>
        <mxCell id="y24MIxbhBwyy81BUQA5c-312" value="" style="endArrow=none;html=1;rounded=0;" parent="1" edge="1">
          <mxGeometry width="50" height="50" relative="1" as="geometry">
            <mxPoint x="323" y="421" as="sourcePoint" />
            <mxPoint x="323" y="411" as="targetPoint" />
          </mxGeometry>
        </mxCell>
        <mxCell id="y24MIxbhBwyy81BUQA5c-313" value="YT" style="text;html=1;align=center;verticalAlign=middle;resizable=0;points=[];autosize=1;strokeColor=none;fillColor=none;fontSize=8;" parent="1" vertex="1">
          <mxGeometry x="278" y="388" width="30" height="20" as="geometry" />
        </mxCell>
        <mxCell id="y24MIxbhBwyy81BUQA5c-314" value="B102T" style="text;html=1;align=center;verticalAlign=middle;resizable=0;points=[];autosize=1;strokeColor=none;fillColor=none;fontSize=8;" parent="1" vertex="1">
          <mxGeometry x="342" y="388" width="50" height="20" as="geometry" />
        </mxCell>
        <mxCell id="y24MIxbhBwyy81BUQA5c-315" value="" style="shape=mxgraph.signs.transportation.train_3;html=1;pointerEvents=1;fillColor=#000000;strokeColor=none;verticalLabelPosition=bottom;verticalAlign=top;align=center;fontSize=11;" parent="1" vertex="1">
          <mxGeometry x="548" y="369" width="39.5" height="15" as="geometry" />
        </mxCell>
        <mxCell id="y24MIxbhBwyy81BUQA5c-316" value="" style="ellipse;whiteSpace=wrap;html=1;aspect=fixed;fillColor=#80ff66;" parent="1" vertex="1">
          <mxGeometry x="393" y="412" width="10" height="10" as="geometry" />
        </mxCell>
        <mxCell id="y24MIxbhBwyy81BUQA5c-317" value="" style="endArrow=none;html=1;rounded=0;exitX=1;exitY=0.5;exitDx=0;exitDy=0;" parent="1" source="y24MIxbhBwyy81BUQA5c-316" edge="1">
          <mxGeometry width="50" height="50" relative="1" as="geometry">
            <mxPoint x="563" y="432" as="sourcePoint" />
            <mxPoint x="413" y="417" as="targetPoint" />
          </mxGeometry>
        </mxCell>
        <mxCell id="y24MIxbhBwyy81BUQA5c-318" value="" style="endArrow=none;html=1;rounded=0;" parent="1" edge="1">
          <mxGeometry width="50" height="50" relative="1" as="geometry">
            <mxPoint x="413" y="422" as="sourcePoint" />
            <mxPoint x="413" y="412" as="targetPoint" />
          </mxGeometry>
        </mxCell>
        <mxCell id="y24MIxbhBwyy81BUQA5c-319" value="&lt;font style=&quot;font-size: 12px;&quot;&gt;2A&lt;/font&gt;" style="text;html=1;align=right;verticalAlign=bottom;resizable=0;points=[];autosize=1;strokeColor=none;fillColor=none;labelPosition=left;verticalLabelPosition=top;fontSize=12;" parent="1" vertex="1">
          <mxGeometry x="331" y="440" width="40" height="30" as="geometry" />
        </mxCell>
        <mxCell id="y24MIxbhBwyy81BUQA5c-320" value="&lt;span style=&quot;font-size: 12px;&quot;&gt;상1&lt;/span&gt;" style="text;html=1;align=right;verticalAlign=bottom;resizable=0;points=[];autosize=1;strokeColor=none;fillColor=none;labelPosition=left;verticalLabelPosition=top;fontSize=12;" parent="1" vertex="1">
          <mxGeometry x="423" y="441" width="40" height="30" as="geometry" />
        </mxCell>
        <mxCell id="y24MIxbhBwyy81BUQA5c-321" value="TS03" style="rounded=0;whiteSpace=wrap;html=1;" parent="1" vertex="1">
          <mxGeometry x="583.5" y="327" width="70" height="30" as="geometry" />
        </mxCell>
        <mxCell id="y24MIxbhBwyy81BUQA5c-322" value="TS02" style="rounded=0;whiteSpace=wrap;html=1;" parent="1" vertex="1">
          <mxGeometry x="183" y="327" width="70" height="30" as="geometry" />
        </mxCell>
        <mxCell id="y24MIxbhBwyy81BUQA5c-323" value="" style="endArrow=blockThin;html=1;rounded=0;endFill=1;strokeColor=#ff0000;" parent="1" edge="1">
          <mxGeometry width="50" height="50" relative="1" as="geometry">
            <mxPoint x="562" y="344" as="sourcePoint" />
            <mxPoint x="522" y="343.76" as="targetPoint" />
          </mxGeometry>
        </mxCell>
        <mxCell id="y24MIxbhBwyy81BUQA5c-324" value="UP" style="edgeLabel;html=1;align=center;verticalAlign=middle;resizable=0;points=[];" parent="y24MIxbhBwyy81BUQA5c-323" vertex="1" connectable="0">
          <mxGeometry x="-0.117" y="1" relative="1" as="geometry">
            <mxPoint y="-1" as="offset" />
          </mxGeometry>
        </mxCell>
        <mxCell id="y24MIxbhBwyy81BUQA5c-325" value="" style="ellipse;whiteSpace=wrap;html=1;aspect=fixed;fillColor=none;strokeColor=default;" parent="1" vertex="1">
          <mxGeometry x="422" y="373" width="10" height="10" as="geometry" />
        </mxCell>
        <mxCell id="y24MIxbhBwyy81BUQA5c-326" value="" style="endArrow=none;html=1;rounded=0;exitX=0;exitY=0.5;exitDx=0;exitDy=0;" parent="1" source="y24MIxbhBwyy81BUQA5c-325" edge="1">
          <mxGeometry width="50" height="50" relative="1" as="geometry">
            <mxPoint x="563" y="393" as="sourcePoint" />
            <mxPoint x="413" y="378" as="targetPoint" />
          </mxGeometry>
        </mxCell>
        <mxCell id="y24MIxbhBwyy81BUQA5c-327" value="" style="endArrow=none;html=1;rounded=0;" parent="1" edge="1">
          <mxGeometry width="50" height="50" relative="1" as="geometry">
            <mxPoint x="413" y="383" as="sourcePoint" />
            <mxPoint x="413" y="373" as="targetPoint" />
          </mxGeometry>
        </mxCell>
        <mxCell id="y24MIxbhBwyy81BUQA5c-328" value="&lt;span style=&quot;font-size: 12px;&quot;&gt;하3&lt;/span&gt;" style="text;html=1;align=left;verticalAlign=middle;resizable=0;points=[];autosize=1;strokeColor=none;fillColor=none;labelPosition=right;verticalLabelPosition=middle;fontSize=12;" parent="1" vertex="1">
          <mxGeometry x="361" y="351" width="40" height="30" as="geometry" />
        </mxCell>
        <mxCell id="y24MIxbhBwyy81BUQA5c-329" value="" style="endArrow=classic;html=1;rounded=0;strokeColor=#e90707;" parent="1" edge="1">
          <mxGeometry width="50" height="50" relative="1" as="geometry">
            <mxPoint x="443" y="437" as="sourcePoint" />
            <mxPoint x="423" y="427" as="targetPoint" />
          </mxGeometry>
        </mxCell>
        <mxCell id="y24MIxbhBwyy81BUQA5c-330" value="&lt;font style=&quot;font-size: 10px;&quot;&gt;시험장치&lt;/font&gt;" style="text;html=1;align=center;verticalAlign=middle;whiteSpace=wrap;rounded=0;fontSize=10;" parent="1" vertex="1">
          <mxGeometry x="442" y="428" width="48" height="15" as="geometry" />
        </mxCell>
        <mxCell id="y24MIxbhBwyy81BUQA5c-331" value="" style="ellipse;whiteSpace=wrap;html=1;aspect=fixed;fillColor=#FFD966;strokeColor=default;" parent="1" vertex="1">
          <mxGeometry x="161" y="412" width="10" height="10" as="geometry" />
        </mxCell>
        <mxCell id="y24MIxbhBwyy81BUQA5c-332" value="" style="endArrow=none;html=1;rounded=0;exitX=1;exitY=0.5;exitDx=0;exitDy=0;" parent="1" source="y24MIxbhBwyy81BUQA5c-331" edge="1">
          <mxGeometry width="50" height="50" relative="1" as="geometry">
            <mxPoint x="331" y="432" as="sourcePoint" />
            <mxPoint x="181" y="417" as="targetPoint" />
          </mxGeometry>
        </mxCell>
        <mxCell id="y24MIxbhBwyy81BUQA5c-333" value="" style="endArrow=none;html=1;rounded=0;" parent="1" edge="1">
          <mxGeometry width="50" height="50" relative="1" as="geometry">
            <mxPoint x="181" y="422" as="sourcePoint" />
            <mxPoint x="181" y="412" as="targetPoint" />
          </mxGeometry>
        </mxCell>
        <mxCell id="y24MIxbhBwyy81BUQA5c-334" value="&lt;font style=&quot;font-size: 12px;&quot;&gt;3B&lt;/font&gt;" style="text;html=1;align=right;verticalAlign=bottom;resizable=0;points=[];autosize=1;strokeColor=none;fillColor=none;labelPosition=left;verticalLabelPosition=top;fontSize=12;" parent="1" vertex="1">
          <mxGeometry x="190" y="440" width="40" height="30" as="geometry" />
        </mxCell>
        <mxCell id="y24MIxbhBwyy81BUQA5c-335" value="" style="endArrow=none;html=1;rounded=0;" parent="1" edge="1">
          <mxGeometry width="50" height="50" relative="1" as="geometry">
            <mxPoint x="101" y="391" as="sourcePoint" />
            <mxPoint x="181" y="391" as="targetPoint" />
          </mxGeometry>
        </mxCell>
        <mxCell id="y24MIxbhBwyy81BUQA5c-336" value="" style="endArrow=none;html=1;rounded=0;" parent="1" edge="1">
          <mxGeometry width="50" height="50" relative="1" as="geometry">
            <mxPoint x="101" y="404" as="sourcePoint" />
            <mxPoint x="181" y="404" as="targetPoint" />
          </mxGeometry>
        </mxCell>
        <mxCell id="y24MIxbhBwyy81BUQA5c-337" value="" style="endArrow=classic;html=1;rounded=0;strokeColor=#ec0909;" parent="1" edge="1">
          <mxGeometry width="50" height="50" relative="1" as="geometry">
            <mxPoint x="12" y="416.5" as="sourcePoint" />
            <mxPoint x="102" y="416.5" as="targetPoint" />
          </mxGeometry>
        </mxCell>
        <mxCell id="y24MIxbhBwyy81BUQA5c-338" value="제어신호" style="edgeLabel;html=1;align=center;verticalAlign=middle;resizable=0;points=[];" parent="y24MIxbhBwyy81BUQA5c-337" vertex="1" connectable="0">
          <mxGeometry x="0.3556" y="-3" relative="1" as="geometry">
            <mxPoint x="-15" y="-3" as="offset" />
          </mxGeometry>
        </mxCell>
        <mxCell id="y24MIxbhBwyy81BUQA5c-409" value="" style="ellipse;whiteSpace=wrap;html=1;aspect=fixed;fillColor=#FFD966;strokeColor=default;" parent="1" vertex="1">
          <mxGeometry x="292" y="411" width="10" height="10" as="geometry" />
        </mxCell>
        <mxCell id="y24MIxbhBwyy81BUQA5c-485" value="&lt;font style=&quot;font-size: 10px;&quot;&gt;B102T&lt;/font&gt;" style="rounded=0;whiteSpace=wrap;html=1;strokeColor=none;" parent="1" vertex="1">
          <mxGeometry x="323" y="392" width="89" height="11" as="geometry" />
        </mxCell>
        <mxCell id="y24MIxbhBwyy81BUQA5c-486" value="&lt;font style=&quot;font-size: 10px;&quot;&gt;B102T&lt;/font&gt;" style="rounded=0;whiteSpace=wrap;html=1;strokeColor=none;" parent="1" vertex="1">
          <mxGeometry x="322" y="243" width="89" height="11" as="geometry" />
        </mxCell>
        <mxCell id="y24MIxbhBwyy81BUQA5c-487" value="&lt;font style=&quot;font-size: 10px;&quot;&gt;B102T&lt;/font&gt;" style="rounded=0;whiteSpace=wrap;html=1;strokeColor=none;" parent="1" vertex="1">
          <mxGeometry x="321" y="100" width="89" height="11" as="geometry" />
        </mxCell>
        <mxCell id="y24MIxbhBwyy81BUQA5c-488" value="&lt;font style=&quot;font-size: 10px;&quot;&gt;YT&lt;/font&gt;" style="rounded=0;whiteSpace=wrap;html=1;strokeColor=none;" parent="1" vertex="1">
          <mxGeometry x="252" y="100" width="68" height="11" as="geometry" />
        </mxCell>
        <mxCell id="y24MIxbhBwyy81BUQA5c-489" value="&lt;font style=&quot;font-size: 10px;&quot;&gt;YT&lt;/font&gt;" style="rounded=0;whiteSpace=wrap;html=1;strokeColor=none;" parent="1" vertex="1">
          <mxGeometry x="253" y="243" width="68" height="11" as="geometry" />
        </mxCell>
        <mxCell id="y24MIxbhBwyy81BUQA5c-490" value="&lt;font style=&quot;font-size: 10px;&quot;&gt;YT&lt;/font&gt;" style="rounded=0;whiteSpace=wrap;html=1;strokeColor=none;" parent="1" vertex="1">
          <mxGeometry x="254" y="392" width="68" height="11" as="geometry" />
        </mxCell>
        <mxCell id="y24MIxbhBwyy81BUQA5c-499" value="" style="rounded=0;whiteSpace=wrap;html=1;strokeColor=none;" parent="1" vertex="1">
          <mxGeometry x="100" y="392" width="82" height="11" as="geometry" />
        </mxCell>
        <mxCell id="y24MIxbhBwyy81BUQA5c-500" value="" style="rounded=0;whiteSpace=wrap;html=1;strokeColor=none;" parent="1" vertex="1">
          <mxGeometry x="99" y="243" width="82" height="11" as="geometry" />
        </mxCell>
        <mxCell id="y24MIxbhBwyy81BUQA5c-501" value="" style="rounded=0;whiteSpace=wrap;html=1;strokeColor=none;" parent="1" vertex="1">
          <mxGeometry x="98" y="100" width="82" height="11" as="geometry" />
        </mxCell>
        <mxCell id="y24MIxbhBwyy81BUQA5c-502" value="&lt;font style=&quot;font-size: 10px;&quot;&gt;B103T&lt;/font&gt;" style="rounded=0;whiteSpace=wrap;html=1;strokeColor=none;" parent="1" vertex="1">
          <mxGeometry x="412" y="100" width="88" height="11" as="geometry" />
        </mxCell>
        <mxCell id="y24MIxbhBwyy81BUQA5c-503" value="&lt;font style=&quot;font-size: 10px;&quot;&gt;B103T&lt;/font&gt;" style="rounded=0;whiteSpace=wrap;html=1;strokeColor=none;" parent="1" vertex="1">
          <mxGeometry x="413" y="243" width="88" height="11" as="geometry" />
        </mxCell>
        <mxCell id="y24MIxbhBwyy81BUQA5c-504" value="&lt;font style=&quot;font-size: 10px;&quot;&gt;B103T&lt;/font&gt;" style="rounded=0;whiteSpace=wrap;html=1;strokeColor=none;" parent="1" vertex="1">
          <mxGeometry x="414" y="392" width="88" height="11" as="geometry" />
        </mxCell>
      </root>
    </mxGraphModel>
  </diagram>
  <diagram id="LyM0fIvkfhvuv5zwX2K2" name="YG">
    <mxGraphModel dx="1426" dy="781" grid="1" gridSize="10" guides="1" tooltips="1" connect="1" arrows="1" fold="1" page="1" pageScale="1" pageWidth="827" pageHeight="1169" math="0" shadow="0">
      <root>
        <mxCell id="0" />
        <mxCell id="1" parent="0" />
        <mxCell id="fXGePrn9YwGoGRSNDsRB-1" value="" style="endArrow=none;html=1;rounded=0;" edge="1" parent="1">
          <mxGeometry width="50" height="50" relative="1" as="geometry">
            <mxPoint x="259.5" y="104" as="sourcePoint" />
            <mxPoint x="589.5" y="104" as="targetPoint" />
          </mxGeometry>
        </mxCell>
        <mxCell id="fXGePrn9YwGoGRSNDsRB-2" value="" style="endArrow=none;html=1;rounded=0;" edge="1" parent="1">
          <mxGeometry width="50" height="50" relative="1" as="geometry">
            <mxPoint x="259" y="117" as="sourcePoint" />
            <mxPoint x="589" y="117" as="targetPoint" />
          </mxGeometry>
        </mxCell>
        <mxCell id="fXGePrn9YwGoGRSNDsRB-3" value="" style="endArrow=none;html=1;rounded=0;" edge="1" parent="1">
          <mxGeometry width="50" height="50" relative="1" as="geometry">
            <mxPoint x="325" y="117" as="sourcePoint" />
            <mxPoint x="325" y="104" as="targetPoint" />
          </mxGeometry>
        </mxCell>
        <mxCell id="fXGePrn9YwGoGRSNDsRB-4" value="" style="endArrow=none;html=1;rounded=0;" edge="1" parent="1">
          <mxGeometry width="50" height="50" relative="1" as="geometry">
            <mxPoint x="415" y="117" as="sourcePoint" />
            <mxPoint x="415" y="104" as="targetPoint" />
          </mxGeometry>
        </mxCell>
        <mxCell id="fXGePrn9YwGoGRSNDsRB-5" value="" style="endArrow=none;html=1;rounded=0;" edge="1" parent="1">
          <mxGeometry width="50" height="50" relative="1" as="geometry">
            <mxPoint x="504" y="117" as="sourcePoint" />
            <mxPoint x="504" y="104" as="targetPoint" />
          </mxGeometry>
        </mxCell>
        <mxCell id="fXGePrn9YwGoGRSNDsRB-6" value="" style="ellipse;whiteSpace=wrap;html=1;aspect=fixed;fillColor=#FFD966;strokeColor=default;" vertex="1" parent="1">
          <mxGeometry x="305" y="124" width="10" height="10" as="geometry" />
        </mxCell>
        <mxCell id="fXGePrn9YwGoGRSNDsRB-7" value="" style="endArrow=none;html=1;rounded=0;exitX=1;exitY=0.5;exitDx=0;exitDy=0;" edge="1" parent="1" source="fXGePrn9YwGoGRSNDsRB-6">
          <mxGeometry width="50" height="50" relative="1" as="geometry">
            <mxPoint x="475" y="144" as="sourcePoint" />
            <mxPoint x="325" y="129" as="targetPoint" />
          </mxGeometry>
        </mxCell>
        <mxCell id="fXGePrn9YwGoGRSNDsRB-8" value="" style="endArrow=none;html=1;rounded=0;" edge="1" parent="1">
          <mxGeometry width="50" height="50" relative="1" as="geometry">
            <mxPoint x="325" y="134" as="sourcePoint" />
            <mxPoint x="325" y="124" as="targetPoint" />
          </mxGeometry>
        </mxCell>
        <mxCell id="fXGePrn9YwGoGRSNDsRB-9" value="YT" style="text;html=1;align=center;verticalAlign=middle;resizable=0;points=[];autosize=1;strokeColor=none;fillColor=none;fontSize=8;" vertex="1" parent="1">
          <mxGeometry x="280" y="101" width="30" height="20" as="geometry" />
        </mxCell>
        <mxCell id="fXGePrn9YwGoGRSNDsRB-10" value="B102T" style="text;html=1;align=center;verticalAlign=middle;resizable=0;points=[];autosize=1;strokeColor=none;fillColor=none;fontSize=8;" vertex="1" parent="1">
          <mxGeometry x="344" y="101" width="50" height="20" as="geometry" />
        </mxCell>
        <mxCell id="fXGePrn9YwGoGRSNDsRB-11" value="" style="shape=mxgraph.signs.transportation.train_3;html=1;pointerEvents=1;fillColor=#000000;strokeColor=none;verticalLabelPosition=bottom;verticalAlign=top;align=center;fontSize=11;" vertex="1" parent="1">
          <mxGeometry x="550" y="82" width="39.5" height="15" as="geometry" />
        </mxCell>
        <mxCell id="fXGePrn9YwGoGRSNDsRB-12" value="" style="ellipse;whiteSpace=wrap;html=1;aspect=fixed;fillColor=#80ff66;" vertex="1" parent="1">
          <mxGeometry x="395" y="125" width="10" height="10" as="geometry" />
        </mxCell>
        <mxCell id="fXGePrn9YwGoGRSNDsRB-13" value="" style="endArrow=none;html=1;rounded=0;exitX=1;exitY=0.5;exitDx=0;exitDy=0;" edge="1" parent="1" source="fXGePrn9YwGoGRSNDsRB-12">
          <mxGeometry width="50" height="50" relative="1" as="geometry">
            <mxPoint x="565" y="145" as="sourcePoint" />
            <mxPoint x="415" y="130" as="targetPoint" />
          </mxGeometry>
        </mxCell>
        <mxCell id="fXGePrn9YwGoGRSNDsRB-14" value="" style="endArrow=none;html=1;rounded=0;" edge="1" parent="1">
          <mxGeometry width="50" height="50" relative="1" as="geometry">
            <mxPoint x="415" y="135" as="sourcePoint" />
            <mxPoint x="415" y="125" as="targetPoint" />
          </mxGeometry>
        </mxCell>
        <mxCell id="fXGePrn9YwGoGRSNDsRB-15" value="&lt;font style=&quot;font-size: 12px;&quot;&gt;2A&lt;/font&gt;" style="text;html=1;align=right;verticalAlign=bottom;resizable=0;points=[];autosize=1;strokeColor=none;fillColor=none;labelPosition=left;verticalLabelPosition=top;fontSize=12;" vertex="1" parent="1">
          <mxGeometry x="334" y="152" width="40" height="30" as="geometry" />
        </mxCell>
        <mxCell id="fXGePrn9YwGoGRSNDsRB-16" value="&lt;span style=&quot;font-size: 12px;&quot;&gt;상1&lt;/span&gt;" style="text;html=1;align=right;verticalAlign=bottom;resizable=0;points=[];autosize=1;strokeColor=none;fillColor=none;labelPosition=left;verticalLabelPosition=top;fontSize=12;" vertex="1" parent="1">
          <mxGeometry x="425" y="154" width="40" height="30" as="geometry" />
        </mxCell>
        <mxCell id="fXGePrn9YwGoGRSNDsRB-17" value="" style="ellipse;whiteSpace=wrap;html=1;aspect=fixed;fillColor=#FFD966;" vertex="1" parent="1">
          <mxGeometry x="384" y="125" width="10" height="10" as="geometry" />
        </mxCell>
        <mxCell id="fXGePrn9YwGoGRSNDsRB-18" value="TS03" style="rounded=0;whiteSpace=wrap;html=1;" vertex="1" parent="1">
          <mxGeometry x="585.5" y="40" width="70" height="30" as="geometry" />
        </mxCell>
        <mxCell id="fXGePrn9YwGoGRSNDsRB-19" value="TS02" style="rounded=0;whiteSpace=wrap;html=1;" vertex="1" parent="1">
          <mxGeometry x="185" y="40" width="70" height="30" as="geometry" />
        </mxCell>
        <mxCell id="fXGePrn9YwGoGRSNDsRB-20" value="" style="endArrow=blockThin;html=1;rounded=0;endFill=1;strokeColor=#ff0000;" edge="1" parent="1">
          <mxGeometry width="50" height="50" relative="1" as="geometry">
            <mxPoint x="565" y="57" as="sourcePoint" />
            <mxPoint x="525" y="56.75999999999999" as="targetPoint" />
          </mxGeometry>
        </mxCell>
        <mxCell id="fXGePrn9YwGoGRSNDsRB-21" value="UP" style="edgeLabel;html=1;align=center;verticalAlign=middle;resizable=0;points=[];" vertex="1" connectable="0" parent="fXGePrn9YwGoGRSNDsRB-20">
          <mxGeometry x="-0.117" y="1" relative="1" as="geometry">
            <mxPoint y="-1" as="offset" />
          </mxGeometry>
        </mxCell>
        <mxCell id="fXGePrn9YwGoGRSNDsRB-22" value="" style="ellipse;whiteSpace=wrap;html=1;aspect=fixed;fillColor=none;strokeColor=default;" vertex="1" parent="1">
          <mxGeometry x="424" y="86" width="10" height="10" as="geometry" />
        </mxCell>
        <mxCell id="fXGePrn9YwGoGRSNDsRB-23" value="" style="endArrow=none;html=1;rounded=0;exitX=0;exitY=0.5;exitDx=0;exitDy=0;" edge="1" parent="1" source="fXGePrn9YwGoGRSNDsRB-22">
          <mxGeometry width="50" height="50" relative="1" as="geometry">
            <mxPoint x="565" y="106" as="sourcePoint" />
            <mxPoint x="415" y="91" as="targetPoint" />
          </mxGeometry>
        </mxCell>
        <mxCell id="fXGePrn9YwGoGRSNDsRB-24" value="" style="endArrow=none;html=1;rounded=0;" edge="1" parent="1">
          <mxGeometry width="50" height="50" relative="1" as="geometry">
            <mxPoint x="415" y="96" as="sourcePoint" />
            <mxPoint x="415" y="86" as="targetPoint" />
          </mxGeometry>
        </mxCell>
        <mxCell id="fXGePrn9YwGoGRSNDsRB-25" value="&lt;span style=&quot;font-size: 12px;&quot;&gt;하3&lt;/span&gt;" style="text;html=1;align=left;verticalAlign=middle;resizable=0;points=[];autosize=1;strokeColor=none;fillColor=none;labelPosition=right;verticalLabelPosition=middle;fontSize=12;" vertex="1" parent="1">
          <mxGeometry x="363" y="63" width="40" height="30" as="geometry" />
        </mxCell>
        <mxCell id="fXGePrn9YwGoGRSNDsRB-26" value="" style="endArrow=classic;html=1;rounded=0;strokeColor=#e90707;" edge="1" parent="1">
          <mxGeometry width="50" height="50" relative="1" as="geometry">
            <mxPoint x="445" y="150" as="sourcePoint" />
            <mxPoint x="425" y="140" as="targetPoint" />
          </mxGeometry>
        </mxCell>
        <mxCell id="fXGePrn9YwGoGRSNDsRB-27" value="&lt;font style=&quot;font-size: 10px;&quot;&gt;시험장치&lt;/font&gt;" style="text;html=1;align=center;verticalAlign=middle;whiteSpace=wrap;rounded=0;fontSize=10;" vertex="1" parent="1">
          <mxGeometry x="444" y="141" width="46" height="15" as="geometry" />
        </mxCell>
        <mxCell id="fXGePrn9YwGoGRSNDsRB-28" value="" style="ellipse;whiteSpace=wrap;html=1;aspect=fixed;fillColor=#FFD966;strokeColor=default;" vertex="1" parent="1">
          <mxGeometry x="163" y="125" width="10" height="10" as="geometry" />
        </mxCell>
        <mxCell id="fXGePrn9YwGoGRSNDsRB-29" value="" style="endArrow=none;html=1;rounded=0;exitX=1;exitY=0.5;exitDx=0;exitDy=0;" edge="1" parent="1" source="fXGePrn9YwGoGRSNDsRB-28">
          <mxGeometry width="50" height="50" relative="1" as="geometry">
            <mxPoint x="333" y="145" as="sourcePoint" />
            <mxPoint x="183" y="130" as="targetPoint" />
          </mxGeometry>
        </mxCell>
        <mxCell id="fXGePrn9YwGoGRSNDsRB-30" value="" style="endArrow=none;html=1;rounded=0;" edge="1" parent="1">
          <mxGeometry width="50" height="50" relative="1" as="geometry">
            <mxPoint x="183" y="135" as="sourcePoint" />
            <mxPoint x="183" y="125" as="targetPoint" />
          </mxGeometry>
        </mxCell>
        <mxCell id="fXGePrn9YwGoGRSNDsRB-31" value="&lt;font style=&quot;font-size: 12px;&quot;&gt;3B&lt;/font&gt;" style="text;html=1;align=right;verticalAlign=bottom;resizable=0;points=[];autosize=1;strokeColor=none;fillColor=none;labelPosition=left;verticalLabelPosition=top;fontSize=12;" vertex="1" parent="1">
          <mxGeometry x="192" y="153" width="40" height="30" as="geometry" />
        </mxCell>
        <mxCell id="fXGePrn9YwGoGRSNDsRB-32" value="" style="ellipse;whiteSpace=wrap;html=1;aspect=fixed;fillColor=#FFD966;strokeColor=default;" vertex="1" parent="1">
          <mxGeometry x="152" y="125" width="10" height="10" as="geometry" />
        </mxCell>
        <mxCell id="fXGePrn9YwGoGRSNDsRB-33" value="" style="endArrow=none;html=1;rounded=0;" edge="1" parent="1">
          <mxGeometry width="50" height="50" relative="1" as="geometry">
            <mxPoint x="103" y="104" as="sourcePoint" />
            <mxPoint x="183" y="104" as="targetPoint" />
          </mxGeometry>
        </mxCell>
        <mxCell id="fXGePrn9YwGoGRSNDsRB-34" value="" style="endArrow=none;html=1;rounded=0;" edge="1" parent="1">
          <mxGeometry width="50" height="50" relative="1" as="geometry">
            <mxPoint x="103" y="117" as="sourcePoint" />
            <mxPoint x="183" y="117" as="targetPoint" />
          </mxGeometry>
        </mxCell>
        <mxCell id="fXGePrn9YwGoGRSNDsRB-35" value="" style="endArrow=classic;html=1;rounded=0;strokeColor=#ec0909;" edge="1" parent="1">
          <mxGeometry width="50" height="50" relative="1" as="geometry">
            <mxPoint x="14" y="129.5" as="sourcePoint" />
            <mxPoint x="104" y="129.5" as="targetPoint" />
          </mxGeometry>
        </mxCell>
        <mxCell id="fXGePrn9YwGoGRSNDsRB-36" value="제어신호" style="edgeLabel;html=1;align=center;verticalAlign=middle;resizable=0;points=[];" vertex="1" connectable="0" parent="fXGePrn9YwGoGRSNDsRB-35">
          <mxGeometry x="0.3556" y="-3" relative="1" as="geometry">
            <mxPoint x="-15" y="-3" as="offset" />
          </mxGeometry>
        </mxCell>
        <mxCell id="fXGePrn9YwGoGRSNDsRB-144" value="&lt;font style=&quot;font-size: 10px;&quot;&gt;B102T&lt;/font&gt;" style="rounded=0;whiteSpace=wrap;html=1;strokeColor=none;" vertex="1" parent="1">
          <mxGeometry x="325" y="105" width="89" height="11" as="geometry" />
        </mxCell>
        <mxCell id="fXGePrn9YwGoGRSNDsRB-145" value="&lt;font style=&quot;font-size: 10px;&quot;&gt;YT&lt;/font&gt;" style="rounded=0;whiteSpace=wrap;html=1;strokeColor=none;" vertex="1" parent="1">
          <mxGeometry x="256" y="105" width="68" height="11" as="geometry" />
        </mxCell>
        <mxCell id="fXGePrn9YwGoGRSNDsRB-152" value="" style="rounded=0;whiteSpace=wrap;html=1;strokeColor=none;" vertex="1" parent="1">
          <mxGeometry x="102" y="105" width="82" height="11" as="geometry" />
        </mxCell>
        <mxCell id="fXGePrn9YwGoGRSNDsRB-153" value="&lt;font style=&quot;font-size: 10px;&quot;&gt;B103T&lt;/font&gt;" style="rounded=0;whiteSpace=wrap;html=1;strokeColor=none;" vertex="1" parent="1">
          <mxGeometry x="416" y="105" width="88" height="11" as="geometry" />
        </mxCell>
      </root>
    </mxGraphModel>
  </diagram>
  <diagram id="RlNVv0Dri9CqQo_5_hMG" name="Y">
    <mxGraphModel dx="1426" dy="781" grid="1" gridSize="10" guides="1" tooltips="1" connect="1" arrows="1" fold="1" page="1" pageScale="1" pageWidth="827" pageHeight="1169" math="0" shadow="0">
      <root>
        <mxCell id="0" />
        <mxCell id="1" parent="0" />
        <mxCell id="dtBE5Hc4H4l3foD_Tp14-1" value="" style="endArrow=none;html=1;rounded=0;" edge="1" parent="1">
          <mxGeometry width="50" height="50" relative="1" as="geometry">
            <mxPoint x="262.5" y="102" as="sourcePoint" />
            <mxPoint x="592.5" y="102" as="targetPoint" />
          </mxGeometry>
        </mxCell>
        <mxCell id="dtBE5Hc4H4l3foD_Tp14-2" value="" style="endArrow=none;html=1;rounded=0;" edge="1" parent="1">
          <mxGeometry width="50" height="50" relative="1" as="geometry">
            <mxPoint x="262" y="115" as="sourcePoint" />
            <mxPoint x="592" y="115" as="targetPoint" />
          </mxGeometry>
        </mxCell>
        <mxCell id="dtBE5Hc4H4l3foD_Tp14-3" value="" style="endArrow=none;html=1;rounded=0;" edge="1" parent="1">
          <mxGeometry width="50" height="50" relative="1" as="geometry">
            <mxPoint x="328" y="115" as="sourcePoint" />
            <mxPoint x="328" y="102" as="targetPoint" />
          </mxGeometry>
        </mxCell>
        <mxCell id="dtBE5Hc4H4l3foD_Tp14-4" value="" style="endArrow=none;html=1;rounded=0;" edge="1" parent="1">
          <mxGeometry width="50" height="50" relative="1" as="geometry">
            <mxPoint x="418" y="115" as="sourcePoint" />
            <mxPoint x="418" y="102" as="targetPoint" />
          </mxGeometry>
        </mxCell>
        <mxCell id="dtBE5Hc4H4l3foD_Tp14-5" value="" style="endArrow=none;html=1;rounded=0;" edge="1" parent="1">
          <mxGeometry width="50" height="50" relative="1" as="geometry">
            <mxPoint x="507" y="115" as="sourcePoint" />
            <mxPoint x="507" y="102" as="targetPoint" />
          </mxGeometry>
        </mxCell>
        <mxCell id="dtBE5Hc4H4l3foD_Tp14-6" value="" style="ellipse;whiteSpace=wrap;html=1;aspect=fixed;fillColor=#FFD966;strokeColor=default;" vertex="1" parent="1">
          <mxGeometry x="308" y="122" width="10" height="10" as="geometry" />
        </mxCell>
        <mxCell id="dtBE5Hc4H4l3foD_Tp14-7" value="" style="endArrow=none;html=1;rounded=0;exitX=1;exitY=0.5;exitDx=0;exitDy=0;" edge="1" parent="1" source="dtBE5Hc4H4l3foD_Tp14-6">
          <mxGeometry width="50" height="50" relative="1" as="geometry">
            <mxPoint x="478" y="142" as="sourcePoint" />
            <mxPoint x="328" y="127" as="targetPoint" />
          </mxGeometry>
        </mxCell>
        <mxCell id="dtBE5Hc4H4l3foD_Tp14-8" value="" style="endArrow=none;html=1;rounded=0;" edge="1" parent="1">
          <mxGeometry width="50" height="50" relative="1" as="geometry">
            <mxPoint x="328" y="132" as="sourcePoint" />
            <mxPoint x="328" y="122" as="targetPoint" />
          </mxGeometry>
        </mxCell>
        <mxCell id="dtBE5Hc4H4l3foD_Tp14-9" value="YT" style="text;html=1;align=center;verticalAlign=middle;resizable=0;points=[];autosize=1;strokeColor=none;fillColor=none;fontSize=8;" vertex="1" parent="1">
          <mxGeometry x="283" y="99" width="30" height="20" as="geometry" />
        </mxCell>
        <mxCell id="dtBE5Hc4H4l3foD_Tp14-10" value="B102T" style="text;html=1;align=center;verticalAlign=middle;resizable=0;points=[];autosize=1;strokeColor=none;fillColor=none;fontSize=8;" vertex="1" parent="1">
          <mxGeometry x="347" y="99" width="50" height="20" as="geometry" />
        </mxCell>
        <mxCell id="dtBE5Hc4H4l3foD_Tp14-11" value="" style="shape=mxgraph.signs.transportation.train_3;html=1;pointerEvents=1;fillColor=#000000;strokeColor=none;verticalLabelPosition=bottom;verticalAlign=top;align=center;fontSize=11;" vertex="1" parent="1">
          <mxGeometry x="553" y="80" width="39.5" height="15" as="geometry" />
        </mxCell>
        <mxCell id="dtBE5Hc4H4l3foD_Tp14-12" value="" style="endArrow=none;html=1;rounded=0;exitX=1;exitY=0.5;exitDx=0;exitDy=0;" edge="1" parent="1">
          <mxGeometry width="50" height="50" relative="1" as="geometry">
            <mxPoint x="408" y="128" as="sourcePoint" />
            <mxPoint x="418" y="128" as="targetPoint" />
          </mxGeometry>
        </mxCell>
        <mxCell id="dtBE5Hc4H4l3foD_Tp14-13" value="" style="endArrow=none;html=1;rounded=0;" edge="1" parent="1">
          <mxGeometry width="50" height="50" relative="1" as="geometry">
            <mxPoint x="418" y="133" as="sourcePoint" />
            <mxPoint x="418" y="123" as="targetPoint" />
          </mxGeometry>
        </mxCell>
        <mxCell id="dtBE5Hc4H4l3foD_Tp14-14" value="&lt;font style=&quot;font-size: 12px;&quot;&gt;2A&lt;/font&gt;" style="text;html=1;align=right;verticalAlign=bottom;resizable=0;points=[];autosize=1;strokeColor=none;fillColor=none;labelPosition=left;verticalLabelPosition=top;fontSize=12;" vertex="1" parent="1">
          <mxGeometry x="337" y="149" width="40" height="30" as="geometry" />
        </mxCell>
        <mxCell id="dtBE5Hc4H4l3foD_Tp14-15" value="&lt;span style=&quot;font-size: 12px;&quot;&gt;상1&lt;/span&gt;" style="text;html=1;align=right;verticalAlign=bottom;resizable=0;points=[];autosize=1;strokeColor=none;fillColor=none;labelPosition=left;verticalLabelPosition=top;fontSize=12;" vertex="1" parent="1">
          <mxGeometry x="427" y="150" width="40" height="30" as="geometry" />
        </mxCell>
        <mxCell id="dtBE5Hc4H4l3foD_Tp14-16" value="" style="ellipse;whiteSpace=wrap;html=1;aspect=fixed;fillColor=#FFD966;" vertex="1" parent="1">
          <mxGeometry x="398" y="123" width="10" height="10" as="geometry" />
        </mxCell>
        <mxCell id="dtBE5Hc4H4l3foD_Tp14-17" value="TS03" style="rounded=0;whiteSpace=wrap;html=1;" vertex="1" parent="1">
          <mxGeometry x="588.5" y="38" width="70" height="30" as="geometry" />
        </mxCell>
        <mxCell id="dtBE5Hc4H4l3foD_Tp14-18" value="TS02" style="rounded=0;whiteSpace=wrap;html=1;" vertex="1" parent="1">
          <mxGeometry x="188" y="38" width="70" height="30" as="geometry" />
        </mxCell>
        <mxCell id="dtBE5Hc4H4l3foD_Tp14-19" value="" style="endArrow=blockThin;html=1;rounded=0;endFill=1;strokeColor=#ff0000;" edge="1" parent="1">
          <mxGeometry width="50" height="50" relative="1" as="geometry">
            <mxPoint x="567" y="55" as="sourcePoint" />
            <mxPoint x="527" y="54.75999999999999" as="targetPoint" />
          </mxGeometry>
        </mxCell>
        <mxCell id="dtBE5Hc4H4l3foD_Tp14-20" value="UP" style="edgeLabel;html=1;align=center;verticalAlign=middle;resizable=0;points=[];" vertex="1" connectable="0" parent="dtBE5Hc4H4l3foD_Tp14-19">
          <mxGeometry x="-0.117" y="1" relative="1" as="geometry">
            <mxPoint y="-1" as="offset" />
          </mxGeometry>
        </mxCell>
        <mxCell id="dtBE5Hc4H4l3foD_Tp14-21" value="" style="ellipse;whiteSpace=wrap;html=1;aspect=fixed;fillColor=none;strokeColor=default;" vertex="1" parent="1">
          <mxGeometry x="427" y="84" width="10" height="10" as="geometry" />
        </mxCell>
        <mxCell id="dtBE5Hc4H4l3foD_Tp14-22" value="" style="endArrow=none;html=1;rounded=0;exitX=0;exitY=0.5;exitDx=0;exitDy=0;" edge="1" parent="1" source="dtBE5Hc4H4l3foD_Tp14-21">
          <mxGeometry width="50" height="50" relative="1" as="geometry">
            <mxPoint x="568" y="104" as="sourcePoint" />
            <mxPoint x="418" y="89" as="targetPoint" />
          </mxGeometry>
        </mxCell>
        <mxCell id="dtBE5Hc4H4l3foD_Tp14-23" value="" style="endArrow=none;html=1;rounded=0;" edge="1" parent="1">
          <mxGeometry width="50" height="50" relative="1" as="geometry">
            <mxPoint x="418" y="94" as="sourcePoint" />
            <mxPoint x="418" y="84" as="targetPoint" />
          </mxGeometry>
        </mxCell>
        <mxCell id="dtBE5Hc4H4l3foD_Tp14-24" value="&lt;span style=&quot;font-size: 12px;&quot;&gt;하3&lt;/span&gt;" style="text;html=1;align=left;verticalAlign=middle;resizable=0;points=[];autosize=1;strokeColor=none;fillColor=none;labelPosition=right;verticalLabelPosition=middle;fontSize=12;" vertex="1" parent="1">
          <mxGeometry x="366" y="61" width="40" height="30" as="geometry" />
        </mxCell>
        <mxCell id="dtBE5Hc4H4l3foD_Tp14-25" value="" style="endArrow=classic;html=1;rounded=0;strokeColor=#e90707;" edge="1" parent="1">
          <mxGeometry width="50" height="50" relative="1" as="geometry">
            <mxPoint x="448" y="148" as="sourcePoint" />
            <mxPoint x="428" y="138" as="targetPoint" />
          </mxGeometry>
        </mxCell>
        <mxCell id="dtBE5Hc4H4l3foD_Tp14-26" value="&lt;font style=&quot;font-size: 10px;&quot;&gt;시험장치&lt;/font&gt;" style="text;html=1;align=center;verticalAlign=middle;whiteSpace=wrap;rounded=0;fontSize=10;" vertex="1" parent="1">
          <mxGeometry x="447" y="139" width="43" height="15" as="geometry" />
        </mxCell>
        <mxCell id="dtBE5Hc4H4l3foD_Tp14-27" value="" style="ellipse;whiteSpace=wrap;html=1;aspect=fixed;fillColor=#ff0000;strokeColor=default;" vertex="1" parent="1">
          <mxGeometry x="166" y="123" width="10" height="10" as="geometry" />
        </mxCell>
        <mxCell id="dtBE5Hc4H4l3foD_Tp14-28" value="" style="endArrow=none;html=1;rounded=0;exitX=1;exitY=0.5;exitDx=0;exitDy=0;" edge="1" parent="1" source="dtBE5Hc4H4l3foD_Tp14-27">
          <mxGeometry width="50" height="50" relative="1" as="geometry">
            <mxPoint x="336" y="143" as="sourcePoint" />
            <mxPoint x="186" y="128" as="targetPoint" />
          </mxGeometry>
        </mxCell>
        <mxCell id="dtBE5Hc4H4l3foD_Tp14-29" value="" style="endArrow=none;html=1;rounded=0;" edge="1" parent="1">
          <mxGeometry width="50" height="50" relative="1" as="geometry">
            <mxPoint x="186" y="133" as="sourcePoint" />
            <mxPoint x="186" y="123" as="targetPoint" />
          </mxGeometry>
        </mxCell>
        <mxCell id="dtBE5Hc4H4l3foD_Tp14-30" value="&lt;font style=&quot;font-size: 12px;&quot;&gt;3B&lt;/font&gt;" style="text;html=1;align=right;verticalAlign=bottom;resizable=0;points=[];autosize=1;strokeColor=none;fillColor=none;labelPosition=left;verticalLabelPosition=top;fontSize=12;" vertex="1" parent="1">
          <mxGeometry x="196" y="150" width="40" height="30" as="geometry" />
        </mxCell>
        <mxCell id="dtBE5Hc4H4l3foD_Tp14-31" value="" style="endArrow=none;html=1;rounded=0;" edge="1" parent="1">
          <mxGeometry width="50" height="50" relative="1" as="geometry">
            <mxPoint x="106" y="102" as="sourcePoint" />
            <mxPoint x="186" y="102" as="targetPoint" />
          </mxGeometry>
        </mxCell>
        <mxCell id="dtBE5Hc4H4l3foD_Tp14-32" value="" style="endArrow=none;html=1;rounded=0;" edge="1" parent="1">
          <mxGeometry width="50" height="50" relative="1" as="geometry">
            <mxPoint x="106" y="115" as="sourcePoint" />
            <mxPoint x="186" y="115" as="targetPoint" />
          </mxGeometry>
        </mxCell>
        <mxCell id="dtBE5Hc4H4l3foD_Tp14-33" value="" style="endArrow=classic;html=1;rounded=0;strokeColor=#ec0909;" edge="1" parent="1">
          <mxGeometry width="50" height="50" relative="1" as="geometry">
            <mxPoint x="17" y="127.5" as="sourcePoint" />
            <mxPoint x="107" y="127.5" as="targetPoint" />
          </mxGeometry>
        </mxCell>
        <mxCell id="dtBE5Hc4H4l3foD_Tp14-34" value="제어신호" style="edgeLabel;html=1;align=center;verticalAlign=middle;resizable=0;points=[];" vertex="1" connectable="0" parent="dtBE5Hc4H4l3foD_Tp14-33">
          <mxGeometry x="0.3556" y="-3" relative="1" as="geometry">
            <mxPoint x="-15" y="-3" as="offset" />
          </mxGeometry>
        </mxCell>
        <mxCell id="dtBE5Hc4H4l3foD_Tp14-35" value="" style="ellipse;whiteSpace=wrap;html=1;aspect=fixed;fillColor=#FFD966;strokeColor=default;" vertex="1" parent="1">
          <mxGeometry x="297" y="122" width="10" height="10" as="geometry" />
        </mxCell>
        <mxCell id="dtBE5Hc4H4l3foD_Tp14-107" value="&lt;font style=&quot;font-size: 10px;&quot;&gt;B102T&lt;/font&gt;" style="rounded=0;whiteSpace=wrap;html=1;strokeColor=none;" vertex="1" parent="1">
          <mxGeometry x="328" y="103" width="89" height="11" as="geometry" />
        </mxCell>
        <mxCell id="dtBE5Hc4H4l3foD_Tp14-108" value="&lt;font style=&quot;font-size: 10px;&quot;&gt;YT&lt;/font&gt;" style="rounded=0;whiteSpace=wrap;html=1;strokeColor=none;" vertex="1" parent="1">
          <mxGeometry x="259" y="103" width="68" height="11" as="geometry" />
        </mxCell>
        <mxCell id="dtBE5Hc4H4l3foD_Tp14-113" value="" style="rounded=0;whiteSpace=wrap;html=1;strokeColor=none;" vertex="1" parent="1">
          <mxGeometry x="105" y="103" width="82" height="11" as="geometry" />
        </mxCell>
        <mxCell id="dtBE5Hc4H4l3foD_Tp14-114" value="&lt;font style=&quot;font-size: 10px;&quot;&gt;B103T&lt;/font&gt;" style="rounded=0;whiteSpace=wrap;html=1;strokeColor=none;" vertex="1" parent="1">
          <mxGeometry x="419" y="103" width="88" height="11" as="geometry" />
        </mxCell>
      </root>
    </mxGraphModel>
  </diagram>
  <diagram id="FTv_ZXHf8PHUQS7y8Khq" name="YY">
    <mxGraphModel dx="1426" dy="781" grid="1" gridSize="10" guides="1" tooltips="1" connect="1" arrows="1" fold="1" page="1" pageScale="1" pageWidth="827" pageHeight="1169" math="0" shadow="0">
      <root>
        <mxCell id="0" />
        <mxCell id="1" parent="0" />
        <mxCell id="xvf1DyB2xC_SCHLmsSmm-1" value="" style="endArrow=none;html=1;rounded=0;" edge="1" parent="1">
          <mxGeometry width="50" height="50" relative="1" as="geometry">
            <mxPoint x="262.5" y="104" as="sourcePoint" />
            <mxPoint x="592.5" y="104" as="targetPoint" />
          </mxGeometry>
        </mxCell>
        <mxCell id="xvf1DyB2xC_SCHLmsSmm-2" value="" style="endArrow=none;html=1;rounded=0;" edge="1" parent="1">
          <mxGeometry width="50" height="50" relative="1" as="geometry">
            <mxPoint x="262" y="117" as="sourcePoint" />
            <mxPoint x="592" y="117" as="targetPoint" />
          </mxGeometry>
        </mxCell>
        <mxCell id="xvf1DyB2xC_SCHLmsSmm-3" value="" style="endArrow=none;html=1;rounded=0;" edge="1" parent="1">
          <mxGeometry width="50" height="50" relative="1" as="geometry">
            <mxPoint x="328" y="117" as="sourcePoint" />
            <mxPoint x="328" y="104" as="targetPoint" />
          </mxGeometry>
        </mxCell>
        <mxCell id="xvf1DyB2xC_SCHLmsSmm-4" value="" style="endArrow=none;html=1;rounded=0;" edge="1" parent="1">
          <mxGeometry width="50" height="50" relative="1" as="geometry">
            <mxPoint x="418" y="117" as="sourcePoint" />
            <mxPoint x="418" y="104" as="targetPoint" />
          </mxGeometry>
        </mxCell>
        <mxCell id="xvf1DyB2xC_SCHLmsSmm-5" value="" style="endArrow=none;html=1;rounded=0;" edge="1" parent="1">
          <mxGeometry width="50" height="50" relative="1" as="geometry">
            <mxPoint x="507" y="117" as="sourcePoint" />
            <mxPoint x="507" y="104" as="targetPoint" />
          </mxGeometry>
        </mxCell>
        <mxCell id="xvf1DyB2xC_SCHLmsSmm-6" value="" style="ellipse;whiteSpace=wrap;html=1;aspect=fixed;fillColor=#ff0000;strokeColor=default;" vertex="1" parent="1">
          <mxGeometry x="308" y="124" width="10" height="10" as="geometry" />
        </mxCell>
        <mxCell id="xvf1DyB2xC_SCHLmsSmm-7" value="" style="endArrow=none;html=1;rounded=0;exitX=1;exitY=0.5;exitDx=0;exitDy=0;" edge="1" parent="1" source="xvf1DyB2xC_SCHLmsSmm-6">
          <mxGeometry width="50" height="50" relative="1" as="geometry">
            <mxPoint x="478" y="144" as="sourcePoint" />
            <mxPoint x="328" y="129" as="targetPoint" />
          </mxGeometry>
        </mxCell>
        <mxCell id="xvf1DyB2xC_SCHLmsSmm-8" value="" style="endArrow=none;html=1;rounded=0;" edge="1" parent="1">
          <mxGeometry width="50" height="50" relative="1" as="geometry">
            <mxPoint x="328" y="134" as="sourcePoint" />
            <mxPoint x="328" y="124" as="targetPoint" />
          </mxGeometry>
        </mxCell>
        <mxCell id="xvf1DyB2xC_SCHLmsSmm-9" value="YT" style="text;html=1;align=center;verticalAlign=middle;resizable=0;points=[];autosize=1;strokeColor=none;fillColor=none;fontSize=8;" vertex="1" parent="1">
          <mxGeometry x="283" y="101" width="30" height="20" as="geometry" />
        </mxCell>
        <mxCell id="xvf1DyB2xC_SCHLmsSmm-10" value="B102T" style="text;html=1;align=center;verticalAlign=middle;resizable=0;points=[];autosize=1;strokeColor=none;fillColor=none;fontSize=8;" vertex="1" parent="1">
          <mxGeometry x="347" y="101" width="50" height="20" as="geometry" />
        </mxCell>
        <mxCell id="xvf1DyB2xC_SCHLmsSmm-11" value="" style="shape=mxgraph.signs.transportation.train_3;html=1;pointerEvents=1;fillColor=#000000;strokeColor=none;verticalLabelPosition=bottom;verticalAlign=top;align=center;fontSize=11;" vertex="1" parent="1">
          <mxGeometry x="553" y="82" width="39.5" height="15" as="geometry" />
        </mxCell>
        <mxCell id="xvf1DyB2xC_SCHLmsSmm-12" value="" style="endArrow=none;html=1;rounded=0;exitX=1;exitY=0.5;exitDx=0;exitDy=0;" edge="1" parent="1">
          <mxGeometry width="50" height="50" relative="1" as="geometry">
            <mxPoint x="408" y="130" as="sourcePoint" />
            <mxPoint x="418" y="130" as="targetPoint" />
          </mxGeometry>
        </mxCell>
        <mxCell id="xvf1DyB2xC_SCHLmsSmm-13" value="" style="endArrow=none;html=1;rounded=0;" edge="1" parent="1">
          <mxGeometry width="50" height="50" relative="1" as="geometry">
            <mxPoint x="418" y="135" as="sourcePoint" />
            <mxPoint x="418" y="125" as="targetPoint" />
          </mxGeometry>
        </mxCell>
        <mxCell id="xvf1DyB2xC_SCHLmsSmm-14" value="&lt;font style=&quot;font-size: 12px;&quot;&gt;2A&lt;/font&gt;" style="text;html=1;align=right;verticalAlign=bottom;resizable=0;points=[];autosize=1;strokeColor=none;fillColor=none;labelPosition=left;verticalLabelPosition=top;fontSize=12;" vertex="1" parent="1">
          <mxGeometry x="337" y="153" width="40" height="30" as="geometry" />
        </mxCell>
        <mxCell id="xvf1DyB2xC_SCHLmsSmm-15" value="&lt;span style=&quot;font-size: 12px;&quot;&gt;상1&lt;/span&gt;" style="text;html=1;align=right;verticalAlign=bottom;resizable=0;points=[];autosize=1;strokeColor=none;fillColor=none;labelPosition=left;verticalLabelPosition=top;fontSize=12;" vertex="1" parent="1">
          <mxGeometry x="428" y="153" width="40" height="30" as="geometry" />
        </mxCell>
        <mxCell id="xvf1DyB2xC_SCHLmsSmm-16" value="" style="ellipse;whiteSpace=wrap;html=1;aspect=fixed;fillColor=#FFD966;" vertex="1" parent="1">
          <mxGeometry x="398" y="125" width="10" height="10" as="geometry" />
        </mxCell>
        <mxCell id="xvf1DyB2xC_SCHLmsSmm-17" value="TS03" style="rounded=0;whiteSpace=wrap;html=1;" vertex="1" parent="1">
          <mxGeometry x="588.5" y="40" width="70" height="30" as="geometry" />
        </mxCell>
        <mxCell id="xvf1DyB2xC_SCHLmsSmm-18" value="TS02" style="rounded=0;whiteSpace=wrap;html=1;" vertex="1" parent="1">
          <mxGeometry x="188" y="40" width="70" height="30" as="geometry" />
        </mxCell>
        <mxCell id="xvf1DyB2xC_SCHLmsSmm-19" value="" style="endArrow=blockThin;html=1;rounded=0;endFill=1;strokeColor=#ff0000;" edge="1" parent="1">
          <mxGeometry width="50" height="50" relative="1" as="geometry">
            <mxPoint x="568" y="57" as="sourcePoint" />
            <mxPoint x="528" y="56.75999999999999" as="targetPoint" />
          </mxGeometry>
        </mxCell>
        <mxCell id="xvf1DyB2xC_SCHLmsSmm-20" value="UP" style="edgeLabel;html=1;align=center;verticalAlign=middle;resizable=0;points=[];" vertex="1" connectable="0" parent="xvf1DyB2xC_SCHLmsSmm-19">
          <mxGeometry x="-0.117" y="1" relative="1" as="geometry">
            <mxPoint y="-1" as="offset" />
          </mxGeometry>
        </mxCell>
        <mxCell id="xvf1DyB2xC_SCHLmsSmm-21" value="" style="ellipse;whiteSpace=wrap;html=1;aspect=fixed;fillColor=none;strokeColor=default;" vertex="1" parent="1">
          <mxGeometry x="427" y="86" width="10" height="10" as="geometry" />
        </mxCell>
        <mxCell id="xvf1DyB2xC_SCHLmsSmm-22" value="" style="endArrow=none;html=1;rounded=0;exitX=0;exitY=0.5;exitDx=0;exitDy=0;" edge="1" parent="1" source="xvf1DyB2xC_SCHLmsSmm-21">
          <mxGeometry width="50" height="50" relative="1" as="geometry">
            <mxPoint x="568" y="106" as="sourcePoint" />
            <mxPoint x="418" y="91" as="targetPoint" />
          </mxGeometry>
        </mxCell>
        <mxCell id="xvf1DyB2xC_SCHLmsSmm-23" value="" style="endArrow=none;html=1;rounded=0;" edge="1" parent="1">
          <mxGeometry width="50" height="50" relative="1" as="geometry">
            <mxPoint x="418" y="96" as="sourcePoint" />
            <mxPoint x="418" y="86" as="targetPoint" />
          </mxGeometry>
        </mxCell>
        <mxCell id="xvf1DyB2xC_SCHLmsSmm-24" value="&lt;span style=&quot;font-size: 12px;&quot;&gt;하3&lt;/span&gt;" style="text;html=1;align=left;verticalAlign=middle;resizable=0;points=[];autosize=1;strokeColor=none;fillColor=none;labelPosition=right;verticalLabelPosition=middle;fontSize=12;" vertex="1" parent="1">
          <mxGeometry x="366" y="64" width="40" height="30" as="geometry" />
        </mxCell>
        <mxCell id="xvf1DyB2xC_SCHLmsSmm-25" value="" style="endArrow=classic;html=1;rounded=0;strokeColor=#e90707;" edge="1" parent="1">
          <mxGeometry width="50" height="50" relative="1" as="geometry">
            <mxPoint x="448" y="150" as="sourcePoint" />
            <mxPoint x="428" y="140" as="targetPoint" />
          </mxGeometry>
        </mxCell>
        <mxCell id="xvf1DyB2xC_SCHLmsSmm-26" value="&lt;font style=&quot;font-size: 10px;&quot;&gt;시험장치&lt;/font&gt;" style="text;html=1;align=center;verticalAlign=middle;whiteSpace=wrap;rounded=0;fontSize=10;" vertex="1" parent="1">
          <mxGeometry x="447" y="141" width="43" height="15" as="geometry" />
        </mxCell>
        <mxCell id="xvf1DyB2xC_SCHLmsSmm-27" value="" style="ellipse;whiteSpace=wrap;html=1;aspect=fixed;fillColor=#ff0000;strokeColor=default;" vertex="1" parent="1">
          <mxGeometry x="166" y="125" width="10" height="10" as="geometry" />
        </mxCell>
        <mxCell id="xvf1DyB2xC_SCHLmsSmm-28" value="" style="endArrow=none;html=1;rounded=0;exitX=1;exitY=0.5;exitDx=0;exitDy=0;" edge="1" parent="1" source="xvf1DyB2xC_SCHLmsSmm-27">
          <mxGeometry width="50" height="50" relative="1" as="geometry">
            <mxPoint x="336" y="145" as="sourcePoint" />
            <mxPoint x="186" y="130" as="targetPoint" />
          </mxGeometry>
        </mxCell>
        <mxCell id="xvf1DyB2xC_SCHLmsSmm-29" value="" style="endArrow=none;html=1;rounded=0;" edge="1" parent="1">
          <mxGeometry width="50" height="50" relative="1" as="geometry">
            <mxPoint x="186" y="135" as="sourcePoint" />
            <mxPoint x="186" y="125" as="targetPoint" />
          </mxGeometry>
        </mxCell>
        <mxCell id="xvf1DyB2xC_SCHLmsSmm-30" value="&lt;font style=&quot;font-size: 12px;&quot;&gt;3B&lt;/font&gt;" style="text;html=1;align=right;verticalAlign=bottom;resizable=0;points=[];autosize=1;strokeColor=none;fillColor=none;labelPosition=left;verticalLabelPosition=top;fontSize=12;" vertex="1" parent="1">
          <mxGeometry x="195" y="154" width="40" height="30" as="geometry" />
        </mxCell>
        <mxCell id="xvf1DyB2xC_SCHLmsSmm-31" value="" style="endArrow=none;html=1;rounded=0;" edge="1" parent="1">
          <mxGeometry width="50" height="50" relative="1" as="geometry">
            <mxPoint x="106" y="104" as="sourcePoint" />
            <mxPoint x="186" y="104" as="targetPoint" />
          </mxGeometry>
        </mxCell>
        <mxCell id="xvf1DyB2xC_SCHLmsSmm-32" value="" style="endArrow=none;html=1;rounded=0;" edge="1" parent="1">
          <mxGeometry width="50" height="50" relative="1" as="geometry">
            <mxPoint x="106" y="117" as="sourcePoint" />
            <mxPoint x="186" y="117" as="targetPoint" />
          </mxGeometry>
        </mxCell>
        <mxCell id="xvf1DyB2xC_SCHLmsSmm-33" value="" style="endArrow=classic;html=1;rounded=0;strokeColor=#ec0909;" edge="1" parent="1">
          <mxGeometry width="50" height="50" relative="1" as="geometry">
            <mxPoint x="17" y="129.5" as="sourcePoint" />
            <mxPoint x="107" y="129.5" as="targetPoint" />
          </mxGeometry>
        </mxCell>
        <mxCell id="xvf1DyB2xC_SCHLmsSmm-34" value="제어신호" style="edgeLabel;html=1;align=center;verticalAlign=middle;resizable=0;points=[];" vertex="1" connectable="0" parent="xvf1DyB2xC_SCHLmsSmm-33">
          <mxGeometry x="0.3556" y="-3" relative="1" as="geometry">
            <mxPoint x="-15" y="-3" as="offset" />
          </mxGeometry>
        </mxCell>
        <mxCell id="xvf1DyB2xC_SCHLmsSmm-35" value="" style="ellipse;whiteSpace=wrap;html=1;aspect=fixed;fillColor=#FFD966;" vertex="1" parent="1">
          <mxGeometry x="387" y="125" width="10" height="10" as="geometry" />
        </mxCell>
        <mxCell id="xvf1DyB2xC_SCHLmsSmm-71" value="&lt;font style=&quot;font-size: 10px;&quot;&gt;B102T&lt;/font&gt;" style="rounded=0;whiteSpace=wrap;html=1;strokeColor=none;" vertex="1" parent="1">
          <mxGeometry x="328" y="105" width="89" height="11" as="geometry" />
        </mxCell>
        <mxCell id="xvf1DyB2xC_SCHLmsSmm-72" value="&lt;font style=&quot;font-size: 10px;&quot;&gt;YT&lt;/font&gt;" style="rounded=0;whiteSpace=wrap;html=1;strokeColor=none;" vertex="1" parent="1">
          <mxGeometry x="259" y="105" width="68" height="11" as="geometry" />
        </mxCell>
        <mxCell id="xvf1DyB2xC_SCHLmsSmm-75" value="" style="rounded=0;whiteSpace=wrap;html=1;strokeColor=none;" vertex="1" parent="1">
          <mxGeometry x="105" y="105" width="82" height="11" as="geometry" />
        </mxCell>
        <mxCell id="xvf1DyB2xC_SCHLmsSmm-76" value="&lt;font style=&quot;font-size: 10px;&quot;&gt;B103T&lt;/font&gt;" style="rounded=0;whiteSpace=wrap;html=1;strokeColor=none;" vertex="1" parent="1">
          <mxGeometry x="419" y="105" width="88" height="11" as="geometry" />
        </mxCell>
      </root>
    </mxGraphModel>
  </diagram>
  <diagram id="9lu-6BK9o2N1XsUgl7pV" name="R">
    <mxGraphModel dx="1426" dy="781" grid="1" gridSize="10" guides="1" tooltips="1" connect="1" arrows="1" fold="1" page="1" pageScale="1" pageWidth="827" pageHeight="1169" math="0" shadow="0">
      <root>
        <mxCell id="0" />
        <mxCell id="1" parent="0" />
        <mxCell id="G95XQZRRGHVPNilH_2gj-1" value="" style="endArrow=none;html=1;rounded=0;" edge="1" parent="1">
          <mxGeometry width="50" height="50" relative="1" as="geometry">
            <mxPoint x="285.5" y="104" as="sourcePoint" />
            <mxPoint x="615.5" y="104" as="targetPoint" />
          </mxGeometry>
        </mxCell>
        <mxCell id="G95XQZRRGHVPNilH_2gj-2" value="" style="endArrow=none;html=1;rounded=0;" edge="1" parent="1">
          <mxGeometry width="50" height="50" relative="1" as="geometry">
            <mxPoint x="285" y="117" as="sourcePoint" />
            <mxPoint x="615" y="117" as="targetPoint" />
          </mxGeometry>
        </mxCell>
        <mxCell id="G95XQZRRGHVPNilH_2gj-3" value="" style="endArrow=none;html=1;rounded=0;" edge="1" parent="1">
          <mxGeometry width="50" height="50" relative="1" as="geometry">
            <mxPoint x="351" y="117" as="sourcePoint" />
            <mxPoint x="351" y="104" as="targetPoint" />
          </mxGeometry>
        </mxCell>
        <mxCell id="G95XQZRRGHVPNilH_2gj-4" value="" style="endArrow=none;html=1;rounded=0;" edge="1" parent="1">
          <mxGeometry width="50" height="50" relative="1" as="geometry">
            <mxPoint x="441" y="117" as="sourcePoint" />
            <mxPoint x="441" y="104" as="targetPoint" />
          </mxGeometry>
        </mxCell>
        <mxCell id="G95XQZRRGHVPNilH_2gj-5" value="" style="endArrow=none;html=1;rounded=0;" edge="1" parent="1">
          <mxGeometry width="50" height="50" relative="1" as="geometry">
            <mxPoint x="530" y="117" as="sourcePoint" />
            <mxPoint x="530" y="104" as="targetPoint" />
          </mxGeometry>
        </mxCell>
        <mxCell id="G95XQZRRGHVPNilH_2gj-6" value="" style="ellipse;whiteSpace=wrap;html=1;aspect=fixed;fillColor=#ff0000;strokeColor=default;" vertex="1" parent="1">
          <mxGeometry x="331" y="124" width="10" height="10" as="geometry" />
        </mxCell>
        <mxCell id="G95XQZRRGHVPNilH_2gj-7" value="" style="endArrow=none;html=1;rounded=0;exitX=1;exitY=0.5;exitDx=0;exitDy=0;" edge="1" parent="1" source="G95XQZRRGHVPNilH_2gj-6">
          <mxGeometry width="50" height="50" relative="1" as="geometry">
            <mxPoint x="501" y="144" as="sourcePoint" />
            <mxPoint x="351" y="129" as="targetPoint" />
          </mxGeometry>
        </mxCell>
        <mxCell id="G95XQZRRGHVPNilH_2gj-8" value="" style="endArrow=none;html=1;rounded=0;" edge="1" parent="1">
          <mxGeometry width="50" height="50" relative="1" as="geometry">
            <mxPoint x="351" y="134" as="sourcePoint" />
            <mxPoint x="351" y="124" as="targetPoint" />
          </mxGeometry>
        </mxCell>
        <mxCell id="G95XQZRRGHVPNilH_2gj-9" value="YT" style="text;html=1;align=center;verticalAlign=middle;resizable=0;points=[];autosize=1;strokeColor=none;fillColor=none;fontSize=8;" vertex="1" parent="1">
          <mxGeometry x="306" y="101" width="30" height="20" as="geometry" />
        </mxCell>
        <mxCell id="G95XQZRRGHVPNilH_2gj-10" value="B102T" style="text;html=1;align=center;verticalAlign=middle;resizable=0;points=[];autosize=1;strokeColor=none;fillColor=none;fontSize=8;" vertex="1" parent="1">
          <mxGeometry x="370" y="101" width="50" height="20" as="geometry" />
        </mxCell>
        <mxCell id="G95XQZRRGHVPNilH_2gj-11" value="" style="shape=mxgraph.signs.transportation.train_3;html=1;pointerEvents=1;fillColor=#000000;strokeColor=none;verticalLabelPosition=bottom;verticalAlign=top;align=center;fontSize=11;" vertex="1" parent="1">
          <mxGeometry x="384" y="82" width="39.5" height="15" as="geometry" />
        </mxCell>
        <mxCell id="G95XQZRRGHVPNilH_2gj-12" value="" style="endArrow=none;html=1;rounded=0;exitX=1;exitY=0.5;exitDx=0;exitDy=0;" edge="1" parent="1">
          <mxGeometry width="50" height="50" relative="1" as="geometry">
            <mxPoint x="431" y="130" as="sourcePoint" />
            <mxPoint x="441" y="130" as="targetPoint" />
          </mxGeometry>
        </mxCell>
        <mxCell id="G95XQZRRGHVPNilH_2gj-13" value="" style="endArrow=none;html=1;rounded=0;" edge="1" parent="1">
          <mxGeometry width="50" height="50" relative="1" as="geometry">
            <mxPoint x="441" y="135" as="sourcePoint" />
            <mxPoint x="441" y="125" as="targetPoint" />
          </mxGeometry>
        </mxCell>
        <mxCell id="G95XQZRRGHVPNilH_2gj-14" value="&lt;font style=&quot;font-size: 12px;&quot;&gt;2A&lt;/font&gt;" style="text;html=1;align=right;verticalAlign=bottom;resizable=0;points=[];autosize=1;strokeColor=none;fillColor=none;labelPosition=left;verticalLabelPosition=top;fontSize=12;" vertex="1" parent="1">
          <mxGeometry x="359" y="152" width="40" height="30" as="geometry" />
        </mxCell>
        <mxCell id="G95XQZRRGHVPNilH_2gj-15" value="&lt;span style=&quot;font-size: 12px;&quot;&gt;상1&lt;/span&gt;" style="text;html=1;align=right;verticalAlign=bottom;resizable=0;points=[];autosize=1;strokeColor=none;fillColor=none;labelPosition=left;verticalLabelPosition=top;fontSize=12;" vertex="1" parent="1">
          <mxGeometry x="451" y="153" width="40" height="30" as="geometry" />
        </mxCell>
        <mxCell id="G95XQZRRGHVPNilH_2gj-16" value="" style="ellipse;whiteSpace=wrap;html=1;aspect=fixed;fillColor=#ff0000;" vertex="1" parent="1">
          <mxGeometry x="421" y="125" width="10" height="10" as="geometry" />
        </mxCell>
        <mxCell id="G95XQZRRGHVPNilH_2gj-17" value="TS03" style="rounded=0;whiteSpace=wrap;html=1;" vertex="1" parent="1">
          <mxGeometry x="611.5" y="40" width="70" height="30" as="geometry" />
        </mxCell>
        <mxCell id="G95XQZRRGHVPNilH_2gj-18" value="TS02" style="rounded=0;whiteSpace=wrap;html=1;" vertex="1" parent="1">
          <mxGeometry x="211" y="40" width="70" height="30" as="geometry" />
        </mxCell>
        <mxCell id="G95XQZRRGHVPNilH_2gj-19" value="" style="endArrow=blockThin;html=1;rounded=0;endFill=1;strokeColor=#ff0000;" edge="1" parent="1">
          <mxGeometry width="50" height="50" relative="1" as="geometry">
            <mxPoint x="590" y="57" as="sourcePoint" />
            <mxPoint x="550" y="56.75999999999999" as="targetPoint" />
          </mxGeometry>
        </mxCell>
        <mxCell id="G95XQZRRGHVPNilH_2gj-20" value="UP" style="edgeLabel;html=1;align=center;verticalAlign=middle;resizable=0;points=[];" vertex="1" connectable="0" parent="G95XQZRRGHVPNilH_2gj-19">
          <mxGeometry x="-0.117" y="1" relative="1" as="geometry">
            <mxPoint y="-1" as="offset" />
          </mxGeometry>
        </mxCell>
        <mxCell id="G95XQZRRGHVPNilH_2gj-21" value="" style="ellipse;whiteSpace=wrap;html=1;aspect=fixed;fillColor=none;strokeColor=default;" vertex="1" parent="1">
          <mxGeometry x="450" y="86" width="10" height="10" as="geometry" />
        </mxCell>
        <mxCell id="G95XQZRRGHVPNilH_2gj-22" value="" style="endArrow=none;html=1;rounded=0;exitX=0;exitY=0.5;exitDx=0;exitDy=0;" edge="1" parent="1" source="G95XQZRRGHVPNilH_2gj-21">
          <mxGeometry width="50" height="50" relative="1" as="geometry">
            <mxPoint x="591" y="106" as="sourcePoint" />
            <mxPoint x="441" y="91" as="targetPoint" />
          </mxGeometry>
        </mxCell>
        <mxCell id="G95XQZRRGHVPNilH_2gj-23" value="" style="endArrow=none;html=1;rounded=0;" edge="1" parent="1">
          <mxGeometry width="50" height="50" relative="1" as="geometry">
            <mxPoint x="441" y="96" as="sourcePoint" />
            <mxPoint x="441" y="86" as="targetPoint" />
          </mxGeometry>
        </mxCell>
        <mxCell id="G95XQZRRGHVPNilH_2gj-24" value="&lt;span style=&quot;font-size: 12px;&quot;&gt;하3&lt;/span&gt;" style="text;html=1;align=left;verticalAlign=middle;resizable=0;points=[];autosize=1;strokeColor=none;fillColor=none;labelPosition=right;verticalLabelPosition=middle;fontSize=12;" vertex="1" parent="1">
          <mxGeometry x="389" y="64" width="40" height="30" as="geometry" />
        </mxCell>
        <mxCell id="G95XQZRRGHVPNilH_2gj-25" value="" style="endArrow=classic;html=1;rounded=0;strokeColor=#e90707;" edge="1" parent="1">
          <mxGeometry width="50" height="50" relative="1" as="geometry">
            <mxPoint x="471" y="150" as="sourcePoint" />
            <mxPoint x="451" y="140" as="targetPoint" />
          </mxGeometry>
        </mxCell>
        <mxCell id="G95XQZRRGHVPNilH_2gj-26" value="&lt;font style=&quot;font-size: 10px;&quot;&gt;시험장치&lt;/font&gt;" style="text;html=1;align=center;verticalAlign=middle;whiteSpace=wrap;rounded=0;fontSize=10;" vertex="1" parent="1">
          <mxGeometry x="470" y="141" width="50" height="15" as="geometry" />
        </mxCell>
        <mxCell id="G95XQZRRGHVPNilH_2gj-27" value="" style="ellipse;whiteSpace=wrap;html=1;aspect=fixed;fillColor=#ff0000;strokeColor=default;" vertex="1" parent="1">
          <mxGeometry x="189" y="125" width="10" height="10" as="geometry" />
        </mxCell>
        <mxCell id="G95XQZRRGHVPNilH_2gj-28" value="" style="endArrow=none;html=1;rounded=0;exitX=1;exitY=0.5;exitDx=0;exitDy=0;" edge="1" parent="1" source="G95XQZRRGHVPNilH_2gj-27">
          <mxGeometry width="50" height="50" relative="1" as="geometry">
            <mxPoint x="359" y="145" as="sourcePoint" />
            <mxPoint x="209" y="130" as="targetPoint" />
          </mxGeometry>
        </mxCell>
        <mxCell id="G95XQZRRGHVPNilH_2gj-29" value="" style="endArrow=none;html=1;rounded=0;" edge="1" parent="1">
          <mxGeometry width="50" height="50" relative="1" as="geometry">
            <mxPoint x="209" y="135" as="sourcePoint" />
            <mxPoint x="209" y="125" as="targetPoint" />
          </mxGeometry>
        </mxCell>
        <mxCell id="G95XQZRRGHVPNilH_2gj-30" value="&lt;font style=&quot;font-size: 12px;&quot;&gt;3B&lt;/font&gt;" style="text;html=1;align=right;verticalAlign=bottom;resizable=0;points=[];autosize=1;strokeColor=none;fillColor=none;labelPosition=left;verticalLabelPosition=top;fontSize=12;" vertex="1" parent="1">
          <mxGeometry x="218" y="153" width="40" height="30" as="geometry" />
        </mxCell>
        <mxCell id="G95XQZRRGHVPNilH_2gj-31" value="" style="endArrow=none;html=1;rounded=0;" edge="1" parent="1">
          <mxGeometry width="50" height="50" relative="1" as="geometry">
            <mxPoint x="129" y="104" as="sourcePoint" />
            <mxPoint x="209" y="104" as="targetPoint" />
          </mxGeometry>
        </mxCell>
        <mxCell id="G95XQZRRGHVPNilH_2gj-32" value="" style="endArrow=none;html=1;rounded=0;" edge="1" parent="1">
          <mxGeometry width="50" height="50" relative="1" as="geometry">
            <mxPoint x="129" y="117" as="sourcePoint" />
            <mxPoint x="209" y="117" as="targetPoint" />
          </mxGeometry>
        </mxCell>
        <mxCell id="G95XQZRRGHVPNilH_2gj-33" value="" style="endArrow=classic;html=1;rounded=0;strokeColor=#ec0909;" edge="1" parent="1">
          <mxGeometry width="50" height="50" relative="1" as="geometry">
            <mxPoint x="40" y="129.5" as="sourcePoint" />
            <mxPoint x="130" y="129.5" as="targetPoint" />
          </mxGeometry>
        </mxCell>
        <mxCell id="G95XQZRRGHVPNilH_2gj-34" value="제어신호" style="edgeLabel;html=1;align=center;verticalAlign=middle;resizable=0;points=[];" vertex="1" connectable="0" parent="G95XQZRRGHVPNilH_2gj-33">
          <mxGeometry x="0.3556" y="-3" relative="1" as="geometry">
            <mxPoint x="-15" y="-3" as="offset" />
          </mxGeometry>
        </mxCell>
        <mxCell id="G95XQZRRGHVPNilH_2gj-35" value="&lt;font style=&quot;font-size: 10px;&quot;&gt;B102T&lt;/font&gt;" style="rounded=0;whiteSpace=wrap;html=1;strokeColor=none;fillColor=#ff0000;" vertex="1" parent="1">
          <mxGeometry x="351" y="105" width="89" height="11" as="geometry" />
        </mxCell>
        <mxCell id="G95XQZRRGHVPNilH_2gj-36" value="&lt;font style=&quot;font-size: 10px;&quot;&gt;YT&lt;/font&gt;" style="rounded=0;whiteSpace=wrap;html=1;strokeColor=none;" vertex="1" parent="1">
          <mxGeometry x="282" y="105" width="68" height="11" as="geometry" />
        </mxCell>
        <mxCell id="G95XQZRRGHVPNilH_2gj-37" value="" style="rounded=0;whiteSpace=wrap;html=1;strokeColor=none;" vertex="1" parent="1">
          <mxGeometry x="128" y="105" width="82" height="11" as="geometry" />
        </mxCell>
        <mxCell id="G95XQZRRGHVPNilH_2gj-38" value="&lt;font style=&quot;font-size: 10px;&quot;&gt;B103T&lt;/font&gt;" style="rounded=0;whiteSpace=wrap;html=1;strokeColor=none;" vertex="1" parent="1">
          <mxGeometry x="442" y="105" width="88" height="11" as="geometry" />
        </mxCell>
      </root>
    </mxGraphModel>
  </diagram>
</mxfile>
